<svg xmlns="http://www.w3.org/2000/svg" xmlns:xlink="http://www.w3.org/1999/xlink" width="64" zoomAndPan="magnify" viewBox="0 0 30 30.000001" height="64" preserveAspectRatio="xMidYMid meet" version="1.0"><defs><clipPath id="e3030fb6a4"><path d="M 0.484375 0 L 29.515625 0 L 29.515625 29.03125 L 0.484375 29.03125 Z M 0.484375 0 " clip-rule="nonzero"/></clipPath><clipPath id="449bd53d9b"><path d="M 2.332031 4.660156 L 23.1875 4.660156 L 23.1875 24.210938 L 2.332031 24.210938 Z M 2.332031 4.660156 " clip-rule="nonzero"/></clipPath><clipPath id="68ea8043b6"><path d="M 23.128906 11.566406 C 23.128906 17.699219 22.363281 19.277344 21.34375 20.464844 C 20.324219 21.652344 18.835938 22.703125 17.347656 23.328125 C 15.839844 23.949219 13.96875 24.261719 12.332031 24.164062 C 10.695312 24.085938 8.890625 23.5625 7.488281 22.78125 C 6.066406 22.003906 4.746094 20.777344 3.875 19.492188 C 3.027344 18.207031 2.472656 16.550781 2.367188 15.03125 C 2.28125 13.53125 2.621094 11.839844 3.28125 10.457031 C 3.960938 9.074219 5.128906 7.710938 6.425781 6.796875 C 7.722656 5.859375 9.445312 5.140625 11.058594 4.867188 C 12.695312 4.613281 14.5625 4.710938 16.136719 5.160156 C 17.710938 5.609375 20.492188 7.574219 20.492188 7.574219 " clip-rule="nonzero"/></clipPath><clipPath id="a5cdff2ebb"><path d="M 7.023438 1.941406 L 22.988281 1.941406 L 22.988281 27.34375 L 7.023438 27.34375 Z M 7.023438 1.941406 " clip-rule="nonzero"/></clipPath></defs><g clip-path="url(#e3030fb6a4)"><path fill="#ffffff" d="M 18.855469 0 L 11.144531 0 C 10.441406 0 9.75 0.0664062 9.0625 0.203125 C 8.378906 0.339844 7.710938 0.542969 7.0625 0.8125 C 6.417969 1.078125 5.804688 1.40625 5.222656 1.796875 C 4.640625 2.183594 4.101562 2.628906 3.605469 3.121094 C 3.109375 3.617188 2.667969 4.15625 2.28125 4.738281 C 1.890625 5.320312 1.5625 5.933594 1.296875 6.578125 C 1.027344 7.226562 0.824219 7.894531 0.6875 8.578125 C 0.550781 9.265625 0.484375 9.960938 0.484375 10.660156 L 0.484375 18.375 C 0.484375 19.074219 0.550781 19.765625 0.6875 20.453125 C 0.824219 21.140625 1.027344 21.804688 1.296875 22.453125 C 1.5625 23.097656 1.890625 23.714844 2.28125 24.296875 C 2.667969 24.878906 3.109375 25.414062 3.605469 25.910156 C 4.101562 26.40625 4.640625 26.847656 5.222656 27.234375 C 5.804688 27.625 6.417969 27.953125 7.0625 28.222656 C 7.710938 28.488281 8.378906 28.691406 9.0625 28.828125 C 9.75 28.964844 10.441406 29.03125 11.144531 29.03125 L 18.855469 29.03125 C 19.558594 29.03125 20.25 28.964844 20.9375 28.828125 C 21.621094 28.691406 22.289062 28.488281 22.9375 28.222656 C 23.582031 27.953125 24.195312 27.625 24.777344 27.234375 C 25.359375 26.847656 25.898438 26.40625 26.394531 25.910156 C 26.890625 25.414062 27.332031 24.878906 27.71875 24.296875 C 28.109375 23.714844 28.4375 23.097656 28.703125 22.453125 C 28.972656 21.804688 29.175781 21.140625 29.3125 20.453125 C 29.449219 19.765625 29.515625 19.074219 29.515625 18.375 L 29.515625 10.660156 C 29.515625 9.960938 29.449219 9.265625 29.3125 8.578125 C 29.175781 7.894531 28.972656 7.226562 28.703125 6.578125 C 28.4375 5.933594 28.109375 5.320312 27.71875 4.738281 C 27.332031 4.15625 26.890625 3.617188 26.394531 3.121094 C 25.898438 2.628906 25.359375 2.183594 24.777344 1.796875 C 24.195312 1.40625 23.582031 1.078125 22.9375 0.8125 C 22.289062 0.542969 21.621094 0.339844 20.9375 0.203125 C 20.25 0.0664062 19.558594 0 18.855469 0 Z M 14.632812 22.8125 C 12.117188 22.675781 7.742188 20.5625 7.742188 15.339844 L 7.742188 7.777344 C 7.742188 7.570312 7.78125 7.371094 7.859375 7.179688 C 7.9375 6.992188 8.050781 6.824219 8.199219 6.675781 C 8.34375 6.53125 8.511719 6.417969 8.703125 6.339844 C 8.894531 6.261719 9.089844 6.222656 9.296875 6.222656 L 10.335938 6.222656 C 10.539062 6.222656 10.738281 6.261719 10.929688 6.339844 C 11.121094 6.417969 11.289062 6.53125 11.433594 6.675781 C 11.578125 6.824219 11.691406 6.992188 11.769531 7.179688 C 11.851562 7.371094 11.890625 7.570312 11.890625 7.777344 L 11.890625 15.445312 C 11.882812 15.828125 11.945312 16.203125 12.074219 16.5625 C 12.203125 16.925781 12.394531 17.253906 12.640625 17.546875 C 12.890625 17.839844 13.183594 18.082031 13.515625 18.269531 C 13.851562 18.457031 14.210938 18.578125 14.589844 18.636719 C 14.980469 18.691406 15.363281 18.671875 15.746094 18.578125 C 16.128906 18.484375 16.480469 18.324219 16.800781 18.097656 C 17.121094 17.871094 17.390625 17.59375 17.605469 17.265625 C 17.820312 16.9375 17.96875 16.582031 18.050781 16.195312 C 18.132812 15.8125 18.140625 15.425781 18.074219 15.039062 C 18.011719 14.652344 17.875 14.289062 17.675781 13.953125 C 17.472656 13.617188 17.214844 13.328125 16.902344 13.089844 C 16.59375 12.851562 16.25 12.675781 15.871094 12.566406 C 15.617188 12.5 15.410156 12.359375 15.246094 12.152344 C 15.085938 11.945312 15.003906 11.710938 15 11.445312 L 15 9.570312 C 15 9.398438 15.035156 9.234375 15.105469 9.082031 C 15.175781 8.925781 15.277344 8.792969 15.410156 8.679688 C 15.539062 8.570312 15.6875 8.492188 15.851562 8.449219 C 16.019531 8.402344 16.183594 8.394531 16.351562 8.425781 C 16.804688 8.507812 17.242188 8.628906 17.667969 8.796875 C 18.097656 8.960938 18.503906 9.164062 18.894531 9.40625 C 19.28125 9.648438 19.644531 9.925781 19.980469 10.234375 C 20.316406 10.546875 20.621094 10.886719 20.894531 11.253906 C 21.164062 11.625 21.398438 12.015625 21.597656 12.425781 C 21.796875 12.839844 21.953125 13.269531 22.070312 13.710938 C 22.1875 14.152344 22.261719 14.601562 22.292969 15.058594 C 22.324219 15.515625 22.3125 15.972656 22.257812 16.425781 C 22.207031 16.882812 22.109375 17.328125 21.96875 17.765625 C 21.832031 18.199219 21.652344 18.621094 21.433594 19.023438 C 21.214844 19.425781 20.960938 19.804688 20.671875 20.160156 C 20.382812 20.511719 20.0625 20.835938 19.710938 21.132812 C 19.359375 21.425781 18.984375 21.683594 18.585938 21.90625 C 18.183594 22.128906 17.765625 22.3125 17.332031 22.457031 C 16.898438 22.601562 16.453125 22.703125 16 22.761719 C 15.542969 22.820312 15.089844 22.835938 14.632812 22.8125 Z M 14.632812 22.8125 " fill-opacity="1" fill-rule="nonzero"/></g><g clip-path="url(#449bd53d9b)"><g clip-path="url(#68ea8043b6)"><path fill="#ffffff" d="M 1.519531 4.089844 L 24.246094 4.089844 L 24.246094 24.941406 L 1.519531 24.941406 Z M 1.519531 4.089844 " fill-opacity="1" fill-rule="nonzero"/></g></g><g clip-path="url(#a5cdff2ebb)"><path fill="#407bff" d="M 18.660156 17.347656 L 22.972656 14.859375 L 22.972656 6.101562 L 19.878906 11.386719 L 21.183594 11.386719 L 21.183594 13.828125 L 18.660156 15.285156 L 15.890625 13.6875 L 15.890625 6.148438 L 17.429688 6.148438 L 15 1.941406 L 12.570312 6.148438 L 14.105469 6.148438 L 14.105469 14.71875 C 15.625 15.59375 17.144531 16.46875 18.660156 17.347656 M 14.105469 25.296875 L 14.105469 23.066406 L 7.027344 18.980469 L 7.027344 16.917969 L 15.890625 22.039062 L 15.890625 25.296875 L 18.042969 25.296875 L 18.042969 27.082031 L 14.105469 27.082031 Z M 11.957031 27.082031 L 11.957031 25.296875 L 13.628906 25.296875 L 14.105469 27.082031 Z M 8.8125 11.386719 L 10.121094 11.386719 L 7.027344 6.101562 L 7.027344 14.859375 L 18.570312 21.523438 L 22.972656 18.980469 L 22.972656 16.917969 L 18.570312 19.460938 C 15.316406 17.582031 12.066406 15.707031 8.8125 13.828125 Z M 8.8125 11.386719 " fill-opacity="1" fill-rule="evenodd"/></g></svg>