<svg xmlns="http://www.w3.org/2000/svg" viewBox="0 0 475 263"><path d="M385.13 9.86a157.73 157.73 0 0 0-128.65 45.39l-38 38.52-68.82 4-1.18 20.53 27.78 18.25a5.73 5.73 0 0 0-.27 7.8l3.94 4.54-84.46 113.25 124.07-67.65 3.25 3.74a5.77 5.77 0 0 0 7.72.84l13.83 29.28 20.5 1.69 13.32-66.35 44.1-32.76q4-3.06 7.84-6.36A156.24 156.24 0 0 0 359 92q3.73-5.68 7-11.65 2.6-4.77 4.84-9.71c.75-1.65 1.48-3.3 2.17-5s1.36-3.35 2-5 1.25-3.39 1.83-5.11c.29-.86.58-1.72.85-2.58.56-1.73 1.08-3.46 1.57-5.21a159.67 159.67 0 0 0 5.94-37.82z" fill="#355460" opacity=".1"></path><path d="m170.25 130.45-28.29-18.58 1.18-20.53 73.61-4.3zM223.37 191.29l14.46 30.61 20.5 1.68 14.51-72.29z" fill="#1584b5"></path><path d="M219.41 184.56 88.96 255.69l88.8-119.06 8.82-6.43 40.25 46.3z" fill="#30dac1" fill-rule="evenodd"></path><path d="m215.14 167.12-67.31 37.4 46.34-61.35z" fill="#59e1cd" fill-rule="evenodd"></path><path d="m216.28 191.77-46.81-53.85a5.73 5.73 0 0 1 .3-7.83L250 48.79A157.82 157.82 0 0 1 378.61 3.4a159.84 159.84 0 0 1-26.15 82.1 159.48 159.48 0 0 1-36.71 39l-91.67 68.09a5.72 5.72 0 0 1-7.8-.82z" fill="#199ed9"></path><path d="M378.61 3.41 192.88 164.85l23.4 26.92a5.72 5.72 0 0 0 7.8.8l91.67-68.09a159.48 159.48 0 0 0 36.71-39 159.84 159.84 0 0 0 26.15-82.07z" fill="#30dac1" opacity=".2"></path><circle cx="293.69" cy="77.22" fill="#cdd4d7" r="22.67"></circle><circle cx="293.69" cy="77.22" fill="#fff" r="19.57"></circle></svg>