<svg xmlns="http://www.w3.org/2000/svg" xmlns:xlink="http://www.w3.org/1999/xlink" width="200" zoomAndPan="magnify" viewBox="0 0 187.5 187.499992" height="200" preserveAspectRatio="xMidYMid meet" version="1.0"><defs><clipPath id="b2eaf3d2ef"><path d="M 12 30.011719 L 146 30.011719 L 146 155.941406 L 12 155.941406 Z M 12 30.011719 " clip-rule="nonzero"/></clipPath><clipPath id="b39c03b6b5"><path d="M 145.851562 74.5 C 145.851562 114.007812 140.925781 124.167969 134.355469 131.816406 C 127.785156 139.46875 118.207031 146.242188 108.625 150.253906 C 98.90625 154.265625 86.863281 156.273438 76.324219 155.648438 C 65.785156 155.144531 54.152344 151.757812 45.117188 146.742188 C 35.949219 141.726562 27.460938 133.824219 21.851562 125.546875 C 16.375 117.269531 12.816406 106.605469 12.132812 96.824219 C 11.585938 87.167969 13.777344 76.253906 18.019531 67.351562 C 22.398438 58.445312 29.925781 49.664062 38.273438 43.769531 C 46.625 37.75 57.710938 33.109375 68.113281 31.355469 C 78.652344 29.722656 90.695312 30.351562 100.824219 33.234375 C 110.949219 36.121094 128.878906 48.789062 128.878906 48.789062 " clip-rule="nonzero"/></clipPath></defs><path fill="#ffffff" d="M 118.34375 0 L 68.65625 0 C 67.53125 0 66.410156 0.0273438 65.289062 0.0820312 C 64.164062 0.136719 63.042969 0.21875 61.925781 0.332031 C 60.808594 0.441406 59.695312 0.578125 58.582031 0.742188 C 57.472656 0.90625 56.363281 1.101562 55.261719 1.320312 C 54.160156 1.539062 53.0625 1.785156 51.972656 2.058594 C 50.882812 2.332031 49.800781 2.628906 48.726562 2.957031 C 47.652344 3.28125 46.585938 3.636719 45.527344 4.011719 C 44.46875 4.390625 43.421875 4.796875 42.382812 5.226562 C 41.34375 5.65625 40.316406 6.109375 39.300781 6.589844 C 38.285156 7.070312 37.28125 7.578125 36.292969 8.105469 C 35.300781 8.636719 34.324219 9.191406 33.359375 9.769531 C 32.394531 10.34375 31.445312 10.945312 30.511719 11.570312 C 29.578125 12.195312 28.660156 12.839844 27.757812 13.511719 C 26.855469 14.179688 25.96875 14.871094 25.101562 15.585938 C 24.234375 16.296875 23.382812 17.03125 22.550781 17.785156 C 21.71875 18.539062 20.902344 19.3125 20.109375 20.109375 C 19.3125 20.902344 18.539062 21.71875 17.785156 22.550781 C 17.03125 23.382812 16.296875 24.234375 15.585938 25.101562 C 14.871094 25.96875 14.179688 26.855469 13.511719 27.757812 C 12.839844 28.660156 12.195312 29.578125 11.570312 30.511719 C 10.945312 31.445312 10.34375 32.394531 9.769531 33.359375 C 9.191406 34.324219 8.636719 35.300781 8.105469 36.292969 C 7.578125 37.28125 7.070312 38.285156 6.589844 39.300781 C 6.109375 40.316406 5.65625 41.34375 5.226562 42.382812 C 4.796875 43.421875 4.390625 44.46875 4.011719 45.527344 C 3.636719 46.585938 3.28125 47.652344 2.957031 48.726562 C 2.628906 49.800781 2.332031 50.882812 2.058594 51.972656 C 1.785156 53.0625 1.539062 54.160156 1.320312 55.261719 C 1.101562 56.363281 0.90625 57.472656 0.742188 58.582031 C 0.578125 59.695312 0.441406 60.808594 0.332031 61.925781 C 0.21875 63.042969 0.136719 64.164062 0.0820312 65.289062 C 0.0273438 66.410156 0 67.53125 0 68.65625 L 0 118.34375 C 0 119.46875 0.0273438 120.589844 0.0820312 121.714844 C 0.136719 122.835938 0.21875 123.957031 0.332031 125.074219 C 0.441406 126.191406 0.578125 127.308594 0.742188 128.417969 C 0.90625 129.53125 1.101562 130.636719 1.320312 131.738281 C 1.539062 132.839844 1.785156 133.9375 2.058594 135.027344 C 2.332031 136.117188 2.628906 137.199219 2.957031 138.273438 C 3.28125 139.351562 3.636719 140.417969 4.011719 141.476562 C 4.390625 142.53125 4.796875 143.582031 5.226562 144.617188 C 5.65625 145.65625 6.109375 146.683594 6.589844 147.699219 C 7.070312 148.714844 7.578125 149.71875 8.105469 150.710938 C 8.636719 151.699219 9.191406 152.675781 9.769531 153.640625 C 10.34375 154.605469 10.945312 155.554688 11.570312 156.488281 C 12.195312 157.421875 12.839844 158.339844 13.511719 159.242188 C 14.179688 160.144531 14.871094 161.03125 15.585938 161.898438 C 16.296875 162.769531 17.03125 163.621094 17.785156 164.453125 C 18.539062 165.285156 19.3125 166.097656 20.109375 166.890625 C 20.902344 167.6875 21.71875 168.460938 22.550781 169.214844 C 23.382812 169.96875 24.234375 170.703125 25.101562 171.417969 C 25.96875 172.128906 26.855469 172.820312 27.757812 173.492188 C 28.660156 174.160156 29.578125 174.804688 30.511719 175.429688 C 31.445312 176.054688 32.394531 176.65625 33.359375 177.234375 C 34.324219 177.8125 35.300781 178.363281 36.292969 178.894531 C 37.28125 179.425781 38.285156 179.929688 39.300781 180.410156 C 40.316406 180.890625 41.34375 181.34375 42.382812 181.773438 C 43.421875 182.207031 44.46875 182.609375 45.527344 182.988281 C 46.585938 183.367188 47.652344 183.71875 48.726562 184.046875 C 49.800781 184.371094 50.882812 184.671875 51.972656 184.945312 C 53.0625 185.214844 54.160156 185.464844 55.261719 185.683594 C 56.363281 185.902344 57.472656 186.09375 58.582031 186.257812 C 59.695312 186.421875 60.808594 186.5625 61.925781 186.671875 C 63.042969 186.78125 64.164062 186.863281 65.289062 186.917969 C 66.410156 186.972656 67.53125 187 68.65625 187 L 118.34375 187 C 119.46875 187 120.589844 186.972656 121.714844 186.917969 C 122.835938 186.863281 123.957031 186.78125 125.074219 186.671875 C 126.191406 186.5625 127.308594 186.421875 128.417969 186.257812 C 129.53125 186.09375 130.636719 185.902344 131.738281 185.683594 C 132.839844 185.464844 133.9375 185.21875 135.027344 184.945312 C 136.117188 184.671875 137.199219 184.371094 138.273438 184.046875 C 139.351562 183.71875 140.417969 183.367188 141.476562 182.988281 C 142.53125 182.609375 143.582031 182.207031 144.617188 181.773438 C 145.65625 181.34375 146.683594 180.890625 147.699219 180.410156 C 148.714844 179.929688 149.71875 179.425781 150.710938 178.894531 C 151.699219 178.363281 152.679688 177.8125 153.640625 177.234375 C 154.605469 176.65625 155.554688 176.054688 156.488281 175.429688 C 157.421875 174.804688 158.339844 174.160156 159.242188 173.492188 C 160.144531 172.820312 161.03125 172.128906 161.898438 171.417969 C 162.769531 170.703125 163.621094 169.96875 164.453125 169.214844 C 165.285156 168.460938 166.097656 167.6875 166.890625 166.890625 C 167.6875 166.097656 168.460938 165.285156 169.214844 164.453125 C 169.96875 163.621094 170.703125 162.769531 171.417969 161.898438 C 172.128906 161.03125 172.820312 160.144531 173.492188 159.242188 C 174.160156 158.339844 174.804688 157.421875 175.429688 156.488281 C 176.054688 155.554688 176.65625 154.605469 177.234375 153.640625 C 177.8125 152.679688 178.363281 151.699219 178.894531 150.710938 C 179.425781 149.71875 179.929688 148.714844 180.410156 147.699219 C 180.890625 146.683594 181.34375 145.65625 181.773438 144.617188 C 182.207031 143.582031 182.609375 142.53125 182.988281 141.476562 C 183.367188 140.417969 183.71875 139.351562 184.046875 138.273438 C 184.371094 137.199219 184.671875 136.117188 184.945312 135.027344 C 185.21875 133.9375 185.464844 132.839844 185.683594 131.738281 C 185.902344 130.636719 186.09375 129.53125 186.257812 128.417969 C 186.421875 127.308594 186.5625 126.191406 186.671875 125.074219 C 186.78125 123.957031 186.863281 122.835938 186.917969 121.714844 C 186.972656 120.589844 187 119.46875 187 118.34375 L 187 68.65625 C 187 67.53125 186.972656 66.410156 186.917969 65.289062 C 186.863281 64.164062 186.78125 63.042969 186.671875 61.925781 C 186.5625 60.808594 186.421875 59.695312 186.257812 58.582031 C 186.09375 57.472656 185.902344 56.363281 185.683594 55.261719 C 185.460938 54.160156 185.214844 53.0625 184.945312 51.972656 C 184.671875 50.882812 184.371094 49.800781 184.046875 48.726562 C 183.71875 47.652344 183.367188 46.585938 182.988281 45.527344 C 182.609375 44.46875 182.207031 43.421875 181.773438 42.382812 C 181.34375 41.34375 180.890625 40.316406 180.410156 39.300781 C 179.929688 38.285156 179.425781 37.28125 178.894531 36.292969 C 178.363281 35.300781 177.8125 34.324219 177.234375 33.359375 C 176.65625 32.394531 176.054688 31.445312 175.429688 30.511719 C 174.804688 29.578125 174.160156 28.660156 173.492188 27.757812 C 172.820312 26.855469 172.128906 25.96875 171.417969 25.101562 C 170.703125 24.234375 169.96875 23.382812 169.214844 22.550781 C 168.460938 21.71875 167.6875 20.902344 166.890625 20.109375 C 166.097656 19.3125 165.285156 18.539062 164.453125 17.785156 C 163.621094 17.03125 162.769531 16.296875 161.898438 15.585938 C 161.03125 14.871094 160.144531 14.179688 159.242188 13.511719 C 158.339844 12.839844 157.421875 12.195312 156.488281 11.570312 C 155.554688 10.945312 154.605469 10.34375 153.640625 9.769531 C 152.675781 9.191406 151.699219 8.636719 150.710938 8.105469 C 149.71875 7.578125 148.714844 7.070312 147.699219 6.589844 C 146.683594 6.113281 145.65625 5.65625 144.617188 5.226562 C 143.582031 4.796875 142.53125 4.390625 141.476562 4.011719 C 140.417969 3.636719 139.351562 3.28125 138.273438 2.957031 C 137.199219 2.628906 136.117188 2.332031 135.027344 2.058594 C 133.9375 1.785156 132.839844 1.539062 131.738281 1.320312 C 130.636719 1.101562 129.53125 0.90625 128.417969 0.742188 C 127.308594 0.578125 126.191406 0.441406 125.074219 0.332031 C 123.957031 0.21875 122.835938 0.136719 121.714844 0.0820312 C 120.589844 0.0273438 119.46875 0 118.34375 0 Z M 91.128906 146.929688 C 74.933594 146.0625 46.75 132.4375 46.75 98.808594 L 46.75 50.089844 C 46.75 49.433594 46.816406 48.78125 46.941406 48.136719 C 47.070312 47.488281 47.261719 46.863281 47.511719 46.257812 C 47.765625 45.648438 48.074219 45.070312 48.4375 44.523438 C 48.804688 43.976562 49.21875 43.472656 49.683594 43.007812 C 50.148438 42.539062 50.65625 42.125 51.203125 41.761719 C 51.75 41.394531 52.328125 41.085938 52.933594 40.835938 C 53.542969 40.582031 54.167969 40.390625 54.8125 40.265625 C 55.460938 40.136719 56.109375 40.070312 56.769531 40.070312 L 63.445312 40.070312 C 64.105469 40.070312 64.757812 40.136719 65.402344 40.265625 C 66.046875 40.390625 66.671875 40.582031 67.28125 40.835938 C 67.886719 41.085938 68.464844 41.394531 69.011719 41.761719 C 69.558594 42.125 70.066406 42.539062 70.53125 43.007812 C 70.996094 43.472656 71.410156 43.976562 71.777344 44.523438 C 72.140625 45.070312 72.449219 45.648438 72.703125 46.257812 C 72.953125 46.863281 73.144531 47.488281 73.273438 48.136719 C 73.402344 48.78125 73.464844 49.433594 73.464844 50.089844 L 73.464844 99.476562 C 73.445312 100.707031 73.539062 101.925781 73.738281 103.136719 C 73.941406 104.347656 74.246094 105.53125 74.660156 106.6875 C 75.074219 107.84375 75.589844 108.957031 76.203125 110.019531 C 76.816406 111.082031 77.519531 112.082031 78.3125 113.023438 C 79.105469 113.960938 79.972656 114.820312 80.921875 115.601562 C 81.871094 116.382812 82.878906 117.070312 83.949219 117.671875 C 85.023438 118.273438 86.136719 118.769531 87.300781 119.171875 C 88.460938 119.570312 89.648438 119.863281 90.863281 120.046875 C 91.484375 120.132812 92.105469 120.1875 92.730469 120.210938 C 93.355469 120.238281 93.980469 120.234375 94.605469 120.203125 C 95.230469 120.167969 95.851562 120.105469 96.46875 120.015625 C 97.089844 119.921875 97.703125 119.804688 98.308594 119.65625 C 98.917969 119.507812 99.515625 119.328125 100.105469 119.125 C 100.699219 118.921875 101.277344 118.6875 101.847656 118.429688 C 102.417969 118.171875 102.972656 117.886719 103.515625 117.574219 C 104.058594 117.261719 104.585938 116.925781 105.09375 116.566406 C 105.605469 116.207031 106.101562 115.824219 106.574219 115.417969 C 107.050781 115.007812 107.503906 114.582031 107.941406 114.132812 C 108.375 113.683594 108.789062 113.214844 109.179688 112.726562 C 109.570312 112.238281 109.9375 111.734375 110.285156 111.210938 C 110.628906 110.6875 110.945312 110.152344 111.238281 109.597656 C 111.53125 109.046875 111.800781 108.480469 112.042969 107.902344 C 112.28125 107.328125 112.496094 106.738281 112.679688 106.140625 C 112.867188 105.546875 113.023438 104.941406 113.152344 104.328125 C 113.28125 103.714844 113.382812 103.101562 113.453125 102.476562 C 113.523438 101.855469 113.566406 101.234375 113.578125 100.609375 C 113.59375 99.984375 113.578125 99.359375 113.53125 98.734375 C 113.484375 98.109375 113.410156 97.488281 113.308594 96.875 C 113.203125 96.257812 113.070312 95.644531 112.910156 95.042969 C 112.75 94.4375 112.5625 93.839844 112.34375 93.253906 C 112.128906 92.667969 111.882812 92.09375 111.613281 91.527344 C 111.34375 90.964844 111.046875 90.414062 110.726562 89.878906 C 110.402344 89.34375 110.058594 88.820312 109.6875 88.316406 C 109.316406 87.8125 108.921875 87.328125 108.503906 86.863281 C 108.089844 86.394531 107.652344 85.949219 107.195312 85.523438 C 106.738281 85.097656 106.257812 84.691406 105.765625 84.3125 C 105.269531 83.929688 104.753906 83.574219 104.226562 83.238281 C 103.695312 82.90625 103.152344 82.597656 102.59375 82.316406 C 102.039062 82.035156 101.46875 81.777344 100.886719 81.550781 C 100.304688 81.320312 99.710938 81.117188 99.109375 80.945312 C 98.316406 80.730469 97.574219 80.394531 96.886719 79.9375 C 96.199219 79.484375 95.601562 78.929688 95.097656 78.277344 C 94.589844 77.628906 94.199219 76.914062 93.929688 76.136719 C 93.65625 75.359375 93.511719 74.554688 93.5 73.730469 L 93.5 61.644531 C 93.496094 61.097656 93.554688 60.5625 93.667969 60.027344 C 93.785156 59.496094 93.953125 58.984375 94.183594 58.488281 C 94.410156 57.992188 94.6875 57.53125 95.019531 57.097656 C 95.347656 56.664062 95.71875 56.269531 96.136719 55.917969 C 96.550781 55.566406 97 55.265625 97.480469 55.011719 C 97.964844 54.757812 98.464844 54.558594 98.992188 54.417969 C 99.515625 54.273438 100.050781 54.1875 100.597656 54.164062 C 101.140625 54.136719 101.679688 54.171875 102.214844 54.265625 C 103.664062 54.527344 105.097656 54.859375 106.511719 55.257812 C 107.929688 55.65625 109.324219 56.121094 110.695312 56.652344 C 112.070312 57.183594 113.414062 57.777344 114.730469 58.433594 C 116.046875 59.089844 117.328125 59.808594 118.578125 60.585938 C 119.828125 61.367188 121.035156 62.203125 122.207031 63.09375 C 123.375 63.988281 124.5 64.933594 125.582031 65.933594 C 126.660156 66.929688 127.691406 67.980469 128.675781 69.074219 C 129.65625 70.171875 130.582031 71.3125 131.457031 72.496094 C 132.332031 73.679688 133.148438 74.902344 133.90625 76.164062 C 134.664062 77.425781 135.363281 78.71875 135.996094 80.046875 C 136.632812 81.371094 137.207031 82.726562 137.714844 84.109375 C 138.222656 85.488281 138.664062 86.890625 139.042969 88.3125 C 139.417969 89.734375 139.726562 91.171875 139.964844 92.625 C 140.207031 94.078125 140.378906 95.535156 140.480469 97.003906 C 140.582031 98.472656 140.613281 99.941406 140.578125 101.414062 C 140.542969 102.882812 140.4375 104.351562 140.261719 105.8125 C 140.085938 107.273438 139.84375 108.722656 139.53125 110.160156 C 139.21875 111.597656 138.839844 113.019531 138.394531 114.421875 C 137.949219 115.824219 137.4375 117.203125 136.863281 118.554688 C 136.285156 119.910156 135.648438 121.234375 134.949219 122.527344 C 134.246094 123.824219 133.484375 125.082031 132.667969 126.300781 C 131.847656 127.523438 130.972656 128.707031 130.039062 129.84375 C 129.109375 130.984375 128.125 132.078125 127.089844 133.125 C 126.054688 134.171875 124.976562 135.164062 123.847656 136.109375 C 122.71875 137.054688 121.546875 137.945312 120.335938 138.777344 C 119.121094 139.613281 117.875 140.386719 116.585938 141.101562 C 115.300781 141.816406 113.984375 142.472656 112.636719 143.0625 C 111.289062 143.65625 109.917969 144.183594 108.519531 144.644531 C 107.125 145.105469 105.707031 145.5 104.273438 145.828125 C 102.839844 146.15625 101.394531 146.417969 99.933594 146.609375 C 98.476562 146.800781 97.011719 146.925781 95.539062 146.976562 C 94.070312 147.03125 92.597656 147.015625 91.128906 146.929688 Z M 91.128906 146.929688 " fill-opacity="1" fill-rule="nonzero"/><g clip-path="url(#b2eaf3d2ef)"><g clip-path="url(#b39c03b6b5)"><path fill="#ffffff" d="M 6.660156 26.335938 L 153.054688 26.335938 L 153.054688 160.664062 L 6.660156 160.664062 Z M 6.660156 26.335938 " fill-opacity="1" fill-rule="nonzero"/></g></g><path stroke-linecap="round" transform="matrix(5.610039, 0, 0, 5.610039, 26.3376, 26.337596)" fill="none" stroke-linejoin="round" d="M 9.999912 21.000003 L 7.187571 18.991188 C 4.559749 17.113973 3.000045 14.083691 3.000045 10.853572 L 3.000045 5.754594 C 3.000045 5.307572 3.295971 4.915557 3.725586 4.793009 L 9.725571 3.078727 C 9.904519 3.027201 10.095305 3.027201 10.274949 3.078727 L 16.274935 4.793009 C 16.703853 4.915557 16.999779 5.307572 16.999779 5.754594 L 16.999779 7.500209 M 19.000239 15.000017 L 19.000239 13.000254 C 19.000239 11.895231 18.104802 10.999794 16.999779 10.999794 C 15.895453 10.999794 15.000016 11.895231 15.000016 13.000254 L 15.000016 15.000017 M 19.000239 15.000017 L 15.000016 15.000017 M 19.000239 15.000017 C 20.104565 15.000017 21.000002 15.895454 21.000002 16.99978 L 21.000002 19.000239 C 21.000002 20.104565 20.104565 21.000003 19.000239 21.000003 L 15.000016 21.000003 C 13.89569 21.000003 13.000253 20.104565 13.000253 19.000239 L 13.000253 16.99978 C 13.000253 15.895454 13.89569 15.000017 15.000016 15.000017 " stroke="#407bff" stroke-width="2" stroke-opacity="1" stroke-miterlimit="4"/></svg>