<svg xmlns="http://www.w3.org/2000/svg" xmlns:xlink="http://www.w3.org/1999/xlink" width="230" zoomAndPan="magnify" viewBox="0 0 187.5 52.499999" height="50" preserveAspectRatio="xMidYMid meet" version="1.0"><defs><g/><clipPath id="ebc5683421"><path d="M 0.636719 0 L 52.640625 0 L 52.640625 52.003906 L 0.636719 52.003906 Z M 0.636719 0 " clip-rule="nonzero"/></clipPath><clipPath id="21b9083c63"><path d="M 3.949219 8.347656 L 41.304688 8.347656 L 41.304688 43.367188 L 3.949219 43.367188 Z M 3.949219 8.347656 " clip-rule="nonzero"/></clipPath><clipPath id="a51fcef909"><path d="M 41.199219 20.71875 C 41.199219 31.707031 39.828125 34.53125 38 36.65625 C 36.171875 38.785156 33.507812 40.667969 30.84375 41.785156 C 28.144531 42.902344 24.792969 43.460938 21.863281 43.285156 C 18.929688 43.144531 15.695312 42.203125 13.183594 40.808594 C 10.632812 39.414062 8.273438 37.214844 6.714844 34.914062 C 5.191406 32.613281 4.203125 29.648438 4.011719 26.925781 C 3.859375 24.242188 4.46875 21.207031 5.648438 18.730469 C 6.867188 16.253906 8.960938 13.8125 11.28125 12.171875 C 13.601562 10.5 16.6875 9.207031 19.578125 8.71875 C 22.507812 8.265625 25.859375 8.441406 28.675781 9.242188 C 31.492188 10.046875 36.476562 13.566406 36.476562 13.566406 " clip-rule="nonzero"/></clipPath><clipPath id="5e98b31e1e"><path d="M 12.347656 3.476562 L 40.578125 3.476562 L 40.578125 48.792969 L 12.347656 48.792969 Z M 12.347656 3.476562 " clip-rule="nonzero"/></clipPath></defs><g fill="#407bff" fill-opacity="1"><g transform="translate(60.097873, 37.756542)"><g><path d="M 19.21875 -22.421875 L 19.21875 -18.109375 L 12.453125 -18.109375 L 12.453125 0 L 7.40625 0 L 7.40625 -18.109375 L 0.640625 -18.109375 L 0.640625 -22.421875 Z M 19.21875 -22.421875 "/></g></g></g><g fill="#407bff" fill-opacity="1"><g transform="translate(79.951993, 37.756542)"><g><path d="M 12.515625 -12.75 C 12.085938 -12.851562 11.582031 -12.960938 11 -13.078125 C 10.414062 -13.203125 9.789062 -13.265625 9.125 -13.265625 C 8.820312 -13.265625 8.457031 -13.234375 8.03125 -13.171875 C 7.613281 -13.117188 7.296875 -13.0625 7.078125 -13 L 7.078125 0 L 2.265625 0 L 2.265625 -16.109375 C 3.128906 -16.410156 4.144531 -16.695312 5.3125 -16.96875 C 6.488281 -17.238281 7.800781 -17.375 9.25 -17.375 C 9.507812 -17.375 9.820312 -17.351562 10.1875 -17.3125 C 10.550781 -17.28125 10.914062 -17.238281 11.28125 -17.1875 C 11.65625 -17.132812 12.023438 -17.070312 12.390625 -17 C 12.753906 -16.925781 13.066406 -16.832031 13.328125 -16.71875 Z M 12.515625 -12.75 "/></g></g></g><g fill="#407bff" fill-opacity="1"><g transform="translate(93.597658, 37.756542)"><g><path d="M 7.078125 0 L 2.265625 0 L 2.265625 -17.015625 L 7.078125 -17.015625 Z M 7.53125 -21.921875 C 7.53125 -21.046875 7.242188 -20.351562 6.671875 -19.84375 C 6.109375 -19.332031 5.4375 -19.078125 4.65625 -19.078125 C 3.882812 -19.078125 3.210938 -19.332031 2.640625 -19.84375 C 2.066406 -20.351562 1.78125 -21.046875 1.78125 -21.921875 C 1.78125 -22.804688 2.066406 -23.503906 2.640625 -24.015625 C 3.210938 -24.523438 3.882812 -24.78125 4.65625 -24.78125 C 5.4375 -24.78125 6.109375 -24.523438 6.671875 -24.015625 C 7.242188 -23.503906 7.53125 -22.804688 7.53125 -21.921875 Z M 7.53125 -21.921875 "/></g></g></g><g fill="#407bff" fill-opacity="1"><g transform="translate(102.942678, 37.756542)"><g><path d="M 2.265625 -16.4375 C 3.085938 -16.664062 4.144531 -16.882812 5.4375 -17.09375 C 6.726562 -17.300781 8.085938 -17.40625 9.515625 -17.40625 C 10.953125 -17.40625 12.148438 -17.210938 13.109375 -16.828125 C 14.078125 -16.453125 14.835938 -15.921875 15.390625 -15.234375 C 15.953125 -14.546875 16.351562 -13.726562 16.59375 -12.78125 C 16.832031 -11.832031 16.953125 -10.773438 16.953125 -9.609375 L 16.953125 0 L 12.125 0 L 12.125 -9.03125 C 12.125 -10.582031 11.921875 -11.679688 11.515625 -12.328125 C 11.109375 -12.972656 10.34375 -13.296875 9.21875 -13.296875 C 8.875 -13.296875 8.503906 -13.28125 8.109375 -13.25 C 7.722656 -13.21875 7.378906 -13.175781 7.078125 -13.125 L 7.078125 0 L 2.265625 0 Z M 2.265625 -16.4375 "/></g></g></g><g fill="#407bff" fill-opacity="1"><g transform="translate(121.988404, 37.756542)"><g><path d="M 7.078125 0 L 2.265625 0 L 2.265625 -17.015625 L 7.078125 -17.015625 Z M 7.53125 -21.921875 C 7.53125 -21.046875 7.242188 -20.351562 6.671875 -19.84375 C 6.109375 -19.332031 5.4375 -19.078125 4.65625 -19.078125 C 3.882812 -19.078125 3.210938 -19.332031 2.640625 -19.84375 C 2.066406 -20.351562 1.78125 -21.046875 1.78125 -21.921875 C 1.78125 -22.804688 2.066406 -23.503906 2.640625 -24.015625 C 3.210938 -24.523438 3.882812 -24.78125 4.65625 -24.78125 C 5.4375 -24.78125 6.109375 -24.523438 6.671875 -24.015625 C 7.242188 -23.503906 7.53125 -22.804688 7.53125 -21.921875 Z M 7.53125 -21.921875 "/></g></g></g><g fill="#407bff" fill-opacity="1"><g transform="translate(131.333424, 37.756542)"><g><path d="M 2.109375 -21.25 L 6.921875 -22.03125 L 6.921875 -17.015625 L 12.71875 -17.015625 L 12.71875 -13 L 6.921875 -13 L 6.921875 -7.015625 C 6.921875 -6.003906 7.097656 -5.195312 7.453125 -4.59375 C 7.804688 -3.988281 8.523438 -3.6875 9.609375 -3.6875 C 10.117188 -3.6875 10.648438 -3.734375 11.203125 -3.828125 C 11.753906 -3.929688 12.257812 -4.066406 12.71875 -4.234375 L 13.390625 -0.484375 C 12.804688 -0.242188 12.15625 -0.0390625 11.4375 0.125 C 10.726562 0.300781 9.859375 0.390625 8.828125 0.390625 C 7.515625 0.390625 6.425781 0.210938 5.5625 -0.140625 C 4.695312 -0.492188 4.003906 -0.988281 3.484375 -1.625 C 2.972656 -2.269531 2.613281 -3.039062 2.40625 -3.9375 C 2.207031 -4.84375 2.109375 -5.847656 2.109375 -6.953125 Z M 2.109375 -21.25 "/></g></g></g><g fill="#407bff" fill-opacity="1"><g transform="translate(145.690478, 37.756542)"><g><path d="M 17.375 -17.015625 C 16.394531 -13.734375 15.378906 -10.660156 14.328125 -7.796875 C 13.273438 -4.929688 12.125 -2.148438 10.875 0.546875 C 10.414062 1.515625 9.957031 2.335938 9.5 3.015625 C 9.050781 3.703125 8.554688 4.265625 8.015625 4.703125 C 7.484375 5.148438 6.875 5.472656 6.1875 5.671875 C 5.507812 5.878906 4.71875 5.984375 3.8125 5.984375 C 3.0625 5.984375 2.367188 5.910156 1.734375 5.765625 C 1.097656 5.628906 0.570312 5.472656 0.15625 5.296875 L 1 1.453125 C 1.5 1.628906 1.941406 1.75 2.328125 1.8125 C 2.710938 1.875 3.125 1.90625 3.5625 1.90625 C 4.425781 1.90625 5.085938 1.671875 5.546875 1.203125 C 6.015625 0.742188 6.410156 0.101562 6.734375 -0.71875 C 5.628906 -2.875 4.523438 -5.289062 3.421875 -7.96875 C 2.328125 -10.65625 1.296875 -13.671875 0.328125 -17.015625 L 5.4375 -17.015625 C 5.644531 -16.171875 5.894531 -15.257812 6.1875 -14.28125 C 6.476562 -13.300781 6.785156 -12.304688 7.109375 -11.296875 C 7.429688 -10.296875 7.757812 -9.320312 8.09375 -8.375 C 8.4375 -7.425781 8.757812 -6.566406 9.0625 -5.796875 C 9.34375 -6.566406 9.628906 -7.425781 9.921875 -8.375 C 10.222656 -9.320312 10.519531 -10.296875 10.8125 -11.296875 C 11.101562 -12.304688 11.382812 -13.300781 11.65625 -14.28125 C 11.925781 -15.257812 12.171875 -16.171875 12.390625 -17.015625 Z M 17.375 -17.015625 "/></g></g></g><g clip-path="url(#ebc5683421)"><path fill="#ffffff" d="M 33.546875 0 L 19.730469 0 C 19.105469 0 18.480469 0.03125 17.859375 0.09375 C 17.234375 0.152344 16.617188 0.246094 16.003906 0.367188 C 15.390625 0.488281 14.785156 0.640625 14.1875 0.820312 C 13.589844 1.003906 13 1.214844 12.421875 1.453125 C 11.84375 1.691406 11.28125 1.960938 10.730469 2.253906 C 10.179688 2.550781 9.640625 2.871094 9.121094 3.21875 C 8.601562 3.566406 8.101562 3.9375 7.617188 4.332031 C 7.132812 4.730469 6.671875 5.148438 6.230469 5.59375 C 5.785156 6.035156 5.367188 6.496094 4.972656 6.980469 C 4.574219 7.464844 4.203125 7.964844 3.855469 8.484375 C 3.507812 9.003906 3.1875 9.542969 2.890625 10.09375 C 2.597656 10.644531 2.328125 11.207031 2.089844 11.785156 C 1.851562 12.363281 1.640625 12.953125 1.457031 13.550781 C 1.277344 14.148438 1.125 14.753906 1.003906 15.367188 C 0.882812 15.980469 0.789062 16.597656 0.730469 17.222656 C 0.667969 17.84375 0.636719 18.46875 0.636719 19.09375 L 0.636719 32.910156 C 0.636719 33.535156 0.667969 34.160156 0.730469 34.78125 C 0.789062 35.40625 0.882812 36.023438 1.003906 36.636719 C 1.125 37.25 1.277344 37.855469 1.457031 38.453125 C 1.640625 39.050781 1.851562 39.640625 2.089844 40.21875 C 2.328125 40.796875 2.597656 41.359375 2.890625 41.910156 C 3.1875 42.464844 3.507812 43 3.855469 43.519531 C 4.203125 44.039062 4.574219 44.539062 4.972656 45.023438 C 5.367188 45.507812 5.785156 45.96875 6.230469 46.414062 C 6.671875 46.855469 7.132812 47.273438 7.617188 47.671875 C 8.101562 48.066406 8.601562 48.441406 9.121094 48.785156 C 9.640625 49.132812 10.179688 49.457031 10.730469 49.75 C 11.28125 50.046875 11.84375 50.3125 12.421875 50.550781 C 13 50.789062 13.589844 51 14.1875 51.183594 C 14.785156 51.363281 15.390625 51.515625 16.003906 51.636719 C 16.617188 51.761719 17.234375 51.851562 17.859375 51.914062 C 18.480469 51.972656 19.105469 52.003906 19.730469 52.003906 L 33.546875 52.003906 C 34.171875 52.003906 34.796875 51.972656 35.417969 51.914062 C 36.042969 51.851562 36.660156 51.761719 37.273438 51.636719 C 37.886719 51.515625 38.492188 51.363281 39.089844 51.183594 C 39.6875 51 40.277344 50.789062 40.855469 50.550781 C 41.433594 50.3125 41.996094 50.046875 42.546875 49.75 C 43.101562 49.457031 43.636719 49.132812 44.15625 48.785156 C 44.675781 48.441406 45.175781 48.066406 45.660156 47.671875 C 46.144531 47.273438 46.605469 46.855469 47.050781 46.414062 C 47.492188 45.96875 47.910156 45.507812 48.308594 45.023438 C 48.703125 44.539062 49.078125 44.039062 49.421875 43.519531 C 49.769531 43 50.09375 42.464844 50.386719 41.910156 C 50.683594 41.359375 50.949219 40.796875 51.1875 40.21875 C 51.425781 39.640625 51.636719 39.050781 51.820312 38.453125 C 52 37.855469 52.152344 37.25 52.273438 36.636719 C 52.398438 36.023438 52.488281 35.40625 52.550781 34.78125 C 52.609375 34.160156 52.640625 33.535156 52.640625 32.910156 L 52.640625 19.09375 C 52.640625 18.46875 52.609375 17.84375 52.550781 17.222656 C 52.488281 16.597656 52.398438 15.980469 52.273438 15.367188 C 52.152344 14.753906 52 14.148438 51.820312 13.550781 C 51.636719 12.953125 51.425781 12.363281 51.1875 11.785156 C 50.949219 11.207031 50.683594 10.644531 50.386719 10.09375 C 50.09375 9.542969 49.769531 9.003906 49.421875 8.484375 C 49.078125 7.964844 48.703125 7.464844 48.308594 6.980469 C 47.910156 6.496094 47.492188 6.035156 47.050781 5.59375 C 46.605469 5.148438 46.144531 4.730469 45.660156 4.332031 C 45.175781 3.9375 44.675781 3.566406 44.15625 3.21875 C 43.636719 2.871094 43.101562 2.550781 42.546875 2.253906 C 41.996094 1.960938 41.433594 1.691406 40.855469 1.453125 C 40.277344 1.214844 39.6875 1.003906 39.089844 0.820312 C 38.492188 0.640625 37.886719 0.488281 37.273438 0.367188 C 36.660156 0.246094 36.042969 0.152344 35.417969 0.09375 C 34.796875 0.03125 34.171875 0 33.546875 0 Z M 25.980469 40.859375 C 21.476562 40.621094 13.636719 36.832031 13.636719 27.480469 L 13.636719 13.929688 C 13.636719 13.558594 13.707031 13.203125 13.851562 12.863281 C 13.992188 12.523438 14.191406 12.222656 14.453125 11.960938 C 14.714844 11.699219 15.015625 11.496094 15.359375 11.355469 C 15.699219 11.214844 16.054688 11.144531 16.425781 11.144531 L 18.28125 11.144531 C 18.652344 11.144531 19.007812 11.214844 19.347656 11.355469 C 19.6875 11.496094 19.988281 11.699219 20.25 11.960938 C 20.511719 12.222656 20.714844 12.523438 20.855469 12.863281 C 20.996094 13.203125 21.066406 13.558594 21.066406 13.929688 L 21.066406 27.664062 C 21.058594 28.351562 21.167969 29.023438 21.398438 29.671875 C 21.632812 30.316406 21.96875 30.90625 22.414062 31.429688 C 22.859375 31.957031 23.382812 32.386719 23.984375 32.722656 C 24.585938 33.0625 25.226562 33.28125 25.90625 33.386719 C 26.25 33.433594 26.597656 33.445312 26.945312 33.425781 C 27.292969 33.410156 27.636719 33.359375 27.976562 33.277344 C 28.316406 33.191406 28.644531 33.078125 28.960938 32.933594 C 29.277344 32.789062 29.578125 32.617188 29.863281 32.417969 C 30.148438 32.214844 30.414062 31.992188 30.65625 31.738281 C 30.898438 31.488281 31.113281 31.21875 31.304688 30.925781 C 31.5 30.636719 31.660156 30.328125 31.796875 30.007812 C 31.929688 29.6875 32.03125 29.355469 32.105469 29.011719 C 32.175781 28.671875 32.214844 28.328125 32.222656 27.980469 C 32.230469 27.628906 32.207031 27.285156 32.148438 26.941406 C 32.089844 26.597656 32 26.261719 31.878906 25.933594 C 31.757812 25.605469 31.609375 25.292969 31.429688 24.996094 C 31.25 24.695312 31.042969 24.417969 30.8125 24.15625 C 30.578125 23.894531 30.324219 23.660156 30.050781 23.445312 C 29.773438 23.234375 29.480469 23.050781 29.167969 22.890625 C 28.855469 22.734375 28.535156 22.605469 28.199219 22.511719 C 27.746094 22.386719 27.371094 22.140625 27.082031 21.769531 C 26.792969 21.398438 26.644531 20.976562 26.640625 20.503906 L 26.640625 17.144531 C 26.636719 16.835938 26.699219 16.542969 26.828125 16.265625 C 26.957031 15.988281 27.136719 15.75 27.371094 15.550781 C 27.605469 15.351562 27.871094 15.214844 28.167969 15.132812 C 28.460938 15.050781 28.761719 15.039062 29.0625 15.089844 C 29.871094 15.238281 30.65625 15.457031 31.421875 15.753906 C 32.1875 16.050781 32.917969 16.414062 33.613281 16.847656 C 34.308594 17.285156 34.957031 17.777344 35.5625 18.335938 C 36.164062 18.890625 36.707031 19.5 37.195312 20.160156 C 37.683594 20.820312 38.101562 21.519531 38.457031 22.261719 C 38.8125 23 39.09375 23.765625 39.304688 24.558594 C 39.511719 25.351562 39.648438 26.160156 39.703125 26.976562 C 39.761719 27.796875 39.742188 28.613281 39.644531 29.425781 C 39.546875 30.242188 39.371094 31.039062 39.125 31.820312 C 38.875 32.601562 38.554688 33.355469 38.164062 34.074219 C 37.773438 34.796875 37.320312 35.472656 36.800781 36.109375 C 36.28125 36.746094 35.707031 37.324219 35.078125 37.851562 C 34.449219 38.378906 33.777344 38.839844 33.058594 39.242188 C 32.34375 39.640625 31.59375 39.96875 30.816406 40.226562 C 30.039062 40.484375 29.242188 40.664062 28.429688 40.773438 C 27.613281 40.878906 26.796875 40.910156 25.980469 40.859375 Z M 25.980469 40.859375 " fill-opacity="1" fill-rule="nonzero"/></g><g clip-path="url(#21b9083c63)"><g clip-path="url(#a51fcef909)"><path fill="#ffffff" d="M 2.488281 7.324219 L 43.199219 7.324219 L 43.199219 44.679688 L 2.488281 44.679688 Z M 2.488281 7.324219 " fill-opacity="1" fill-rule="nonzero"/></g></g><g clip-path="url(#5e98b31e1e)"><path fill="#407bff" d="M 33.199219 31.082031 L 40.921875 26.621094 L 40.921875 10.933594 L 35.378906 20.402344 L 37.722656 20.402344 L 37.722656 24.777344 L 33.199219 27.386719 L 28.234375 24.523438 L 28.234375 11.015625 L 30.988281 11.015625 L 26.636719 3.476562 L 22.285156 11.015625 L 25.035156 11.015625 L 25.035156 26.371094 C 27.757812 27.941406 30.476562 29.511719 33.199219 31.082031 M 25.035156 45.328125 L 25.035156 41.332031 L 12.351562 34.011719 L 12.351562 30.316406 L 28.234375 39.488281 L 28.234375 45.328125 L 32.085938 45.328125 L 32.085938 48.527344 L 25.035156 48.527344 Z M 21.183594 48.527344 L 21.183594 45.328125 L 24.179688 45.328125 L 25.035156 48.527344 Z M 15.550781 20.402344 L 17.894531 20.402344 L 12.351562 10.933594 L 12.351562 26.621094 L 33.035156 38.5625 L 40.921875 34.007812 L 40.921875 30.316406 L 33.035156 34.871094 C 27.207031 31.503906 21.378906 28.140625 15.550781 24.777344 Z M 15.550781 20.402344 " fill-opacity="1" fill-rule="evenodd"/></g></svg>