<svg xmlns="http://www.w3.org/2000/svg" xmlns:xlink="http://www.w3.org/1999/xlink" width="500" zoomAndPan="magnify" viewBox="0 0 750 749.999995" height="500" preserveAspectRatio="xMidYMid meet" version="1.0"><defs><clipPath id="e1dd8c36da"><path d="M 0 521 L 336 521 L 336 701.414062 L 0 701.414062 Z M 0 521 " clip-rule="nonzero"/></clipPath><clipPath id="16475c6065"><path d="M 394 48.914062 L 680 48.914062 L 680 178 L 394 178 Z M 394 48.914062 " clip-rule="nonzero"/></clipPath><clipPath id="f1c7bb8e3d"><path d="M 0 48.914062 L 750 48.914062 L 750 701.414062 L 0 701.414062 Z M 0 48.914062 " clip-rule="nonzero"/></clipPath></defs><path fill="#9fbfed" d="M 648.179688 665.542969 L 679.1875 665.542969 L 684.179688 610.992188 L 643.1875 610.992188 Z M 648.179688 665.542969 " fill-opacity="1" fill-rule="nonzero"/><path fill="#ffd6bf" d="M 641.332031 603.765625 L 686.035156 603.765625 L 687.519531 613.621094 L 639.847656 613.621094 Z M 641.332031 603.765625 " fill-opacity="1" fill-rule="nonzero"/><path fill="#ffbb8c" d="M 686.785156 608.691406 L 687.519531 613.621094 L 639.847656 613.621094 L 640.582031 608.691406 Z M 686.785156 608.691406 " fill-opacity="1" fill-rule="nonzero"/><path fill="#ffbb8c" d="M 559.042969 666.144531 L 591.78125 666.144531 L 597.046875 613.164062 L 553.777344 613.164062 Z M 559.042969 666.144531 " fill-opacity="1" fill-rule="nonzero"/><path fill="#ffd6bf" d="M 551.804688 606.6875 L 599.019531 606.6875 L 600.585938 615.511719 L 550.238281 615.511719 Z M 551.804688 606.6875 " fill-opacity="1" fill-rule="nonzero"/><path fill="#ffbb8c" d="M 599.804688 611.105469 L 600.585938 615.511719 L 550.238281 615.511719 L 551.019531 611.105469 Z M 599.804688 611.105469 " fill-opacity="1" fill-rule="nonzero"/><path fill="#ff8a5a" d="M 590.671875 666.144531 L 623.414062 666.144531 L 628.679688 603.75 L 585.40625 603.75 Z M 590.671875 666.144531 " fill-opacity="1" fill-rule="nonzero"/><path fill="#ffd6bf" d="M 583.449219 596.132812 L 630.652344 596.132812 L 632.214844 606.539062 L 581.867188 606.539062 Z M 583.449219 596.132812 " fill-opacity="1" fill-rule="nonzero"/><path fill="#ffbb8c" d="M 631.433594 601.335938 L 632.214844 606.539062 L 581.867188 606.539062 L 582.652344 601.335938 Z M 631.433594 601.335938 " fill-opacity="1" fill-rule="nonzero"/><g clip-path="url(#e1dd8c36da)"><path fill="#b0cff5" d="M 263.625 701.363281 C 263.203125 701.363281 262.875 701.363281 262.648438 701.363281 L 64.859375 701.363281 C 64.417969 701.363281 63.980469 701.332031 63.539062 701.28125 C 41.5625 698.785156 0.015625 681.5625 0.015625 634.15625 C 0.015625 597.878906 29.511719 568.367188 65.773438 568.367188 C 68.105469 568.367188 70.4375 568.5 72.734375 568.726562 C 80.886719 541.339844 106.042969 521.960938 135.71875 521.960938 C 161.445312 521.960938 184.433594 537.261719 195.132812 559.625 C 222.78125 543.507812 265.792969 544.796875 295.90625 565.121094 C 317.496094 579.6875 331.289062 600.097656 334.777344 622.574219 C 337.777344 641.890625 332.835938 661.382812 321.246094 676.03125 C 302.265625 700.027344 270.441406 701.347656 263.640625 701.347656 Z M 263.625 701.363281 " fill-opacity="1" fill-rule="nonzero"/></g><path fill="#b8d1f4" d="M 572.214844 307.839844 C 572.214844 304.628906 569.589844 302 566.378906 302 C 563.167969 302 560.542969 304.628906 560.542969 307.839844 L 560.542969 324.382812 C 560.542969 324.382812 560.542969 325.835938 558.894531 325.835938 L 554.316406 325.835938 L 554.316406 316.550781 C 554.316406 313.566406 551.867188 311.121094 548.886719 311.121094 L 548.019531 311.121094 C 545.039062 311.121094 542.59375 313.566406 542.59375 316.550781 L 542.59375 366.679688 L 538.351562 366.679688 C 536.722656 366.679688 536.707031 365.246094 536.707031 365.230469 L 536.707031 336.046875 C 536.707031 332.832031 534.082031 330.207031 530.867188 330.207031 C 527.65625 330.207031 525.03125 332.832031 525.03125 336.046875 L 525.03125 368.132812 C 525.03125 368.3125 525.03125 368.476562 525.066406 368.636719 C 525.066406 368.867188 525.03125 369.109375 525.03125 369.339844 C 525.03125 375.113281 529.710938 379.796875 535.484375 379.796875 L 542.574219 379.796875 L 542.574219 388.667969 C 542.574219 391.65625 545.019531 394.101562 548.003906 394.101562 L 548.867188 394.101562 C 551.851562 394.101562 554.296875 391.65625 554.296875 388.667969 L 554.296875 338.949219 L 561.75 338.949219 C 567.519531 338.949219 572.199219 334.269531 572.199219 328.492188 C 572.199219 328.25 572.199219 328.019531 572.167969 327.792969 C 572.167969 327.628906 572.199219 327.449219 572.199219 327.285156 L 572.199219 307.839844 Z M 572.214844 307.839844 " fill-opacity="1" fill-rule="nonzero"/><path fill="#d1e1fa" d="M 565.726562 424.050781 L 528.617188 424.050781 L 525.082031 386.125 L 569.265625 386.125 Z M 565.726562 424.050781 " fill-opacity="1" fill-rule="nonzero"/><path fill="#c3d8f6" d="M 581.527344 346.582031 L 579.734375 346.582031 C 577.644531 346.582031 575.933594 348.296875 575.933594 350.382812 L 575.933594 379.796875 L 572.25 379.796875 C 570.945312 379.796875 570.929688 378.652344 570.929688 378.621094 L 570.929688 365.359375 C 570.929688 362.78125 568.824219 360.675781 566.25 360.675781 C 563.671875 360.675781 561.570312 362.78125 561.570312 365.359375 L 561.570312 380.96875 C 561.570312 381.117188 561.570312 381.246094 561.585938 381.378906 C 561.585938 381.558594 561.570312 381.753906 561.570312 381.949219 C 561.570312 386.582031 565.320312 390.332031 569.949219 390.332031 L 575.917969 390.332031 L 575.917969 409.355469 C 575.917969 411.441406 577.628906 413.15625 579.714844 413.15625 L 581.511719 413.15625 C 583.597656 413.15625 585.308594 411.441406 585.308594 409.355469 L 585.308594 350.382812 C 585.308594 348.296875 583.597656 346.582031 581.511719 346.582031 Z M 581.527344 346.582031 " fill-opacity="1" fill-rule="nonzero"/><path fill="#adc9f1" d="M 561.863281 424.050781 L 593.984375 424.050781 L 597.046875 400.300781 L 558.796875 400.300781 Z M 561.863281 424.050781 " fill-opacity="1" fill-rule="nonzero"/><path fill="#b0cff5" d="M 231.015625 240.257812 L 144.703125 238.628906 C 144.261719 238.628906 143.675781 238.5625 142.988281 238.480469 C 124.972656 235.902344 111.71875 219.980469 112.0625 201.453125 C 112.386719 184.242188 124.4375 169.984375 140.804688 166.542969 C 145.304688 145.351562 164.59375 129.660156 186.667969 130.085938 C 194.414062 130.230469 201.929688 132.300781 208.582031 136.121094 C 213.164062 133.949219 218.203125 132.855469 223.320312 132.953125 C 235.761719 133.183594 246.847656 140.3125 252.277344 151.339844 C 269.753906 158.53125 281.101562 175.644531 280.726562 194.746094 C 280.253906 219.902344 258.488281 240.75 233.21875 240.273438 C 232.828125 240.273438 232.289062 240.273438 231.847656 240.273438 C 231.472656 240.273438 231.148438 240.273438 231 240.273438 Z M 231.015625 240.257812 " fill-opacity="1" fill-rule="nonzero"/><path fill="#ffffff" d="M 215.871094 166.917969 L 202.027344 158.613281 C 199.453125 157.066406 197.300781 158.273438 197.25 161.273438 L 197.203125 164.503906 C 196.777344 164.472656 196.355469 164.40625 195.929688 164.390625 C 188.578125 164.0625 181.140625 166.835938 175.730469 172.609375 C 170.460938 178.238281 167.953125 185.871094 168.863281 193.539062 C 169.125 195.675781 171.050781 197.195312 173.183594 196.949219 C 175.320312 196.6875 176.835938 194.746094 176.59375 192.625 C 175.957031 187.226562 177.71875 181.875 181.402344 177.929688 C 185.234375 173.816406 190.550781 171.894531 195.765625 172.171875 C 196.207031 172.203125 196.648438 172.234375 197.085938 172.300781 L 197.007812 177.421875 C 196.957031 180.425781 199.058594 181.679688 201.683594 180.230469 L 215.789062 172.382812 C 218.414062 170.914062 218.460938 168.46875 215.886719 166.917969 Z M 215.871094 166.917969 " fill-opacity="1" fill-rule="nonzero"/><path fill="#ffffff" d="M 178.207031 217.109375 L 192.050781 225.414062 C 194.625 226.964844 196.777344 225.757812 196.808594 222.753906 L 196.859375 219.527344 C 197.28125 219.558594 197.707031 219.625 198.132812 219.640625 C 205.484375 219.964844 212.917969 217.191406 218.332031 211.417969 C 223.597656 205.789062 226.109375 198.171875 225.195312 190.488281 C 224.933594 188.351562 222.996094 186.835938 220.875 187.078125 C 218.738281 187.339844 217.222656 189.265625 217.484375 191.402344 C 218.121094 196.800781 216.375 202.152344 212.675781 206.101562 C 208.828125 210.210938 203.527344 212.136719 198.292969 211.859375 C 197.855469 211.824219 197.429688 211.792969 196.988281 211.726562 L 197.070312 206.605469 C 197.121094 203.605469 195.015625 202.347656 192.390625 203.800781 L 178.289062 211.648438 C 175.664062 213.113281 175.613281 215.5625 178.191406 217.09375 Z M 178.207031 217.109375 " fill-opacity="1" fill-rule="nonzero"/><g clip-path="url(#16475c6065)"><path fill="#b0cff5" d="M 654.683594 127.179688 C 653.835938 127.179688 653.003906 127.230469 652.171875 127.3125 C 652.289062 126.121094 652.351562 124.914062 652.351562 123.707031 C 652.351562 104.292969 636.617188 88.550781 617.214844 88.550781 C 616.351562 88.550781 615.488281 88.585938 614.640625 88.648438 C 608.917969 80.378906 599.851562 74.605469 589.386719 73.300781 C 584.25 60.65625 572.804688 51.867188 559.5 51.867188 C 552.878906 51.867188 546.71875 54.050781 541.546875 57.804688 C 533.886719 52.191406 524.707031 48.929688 514.859375 48.929688 C 492.015625 48.929688 472.875 66.417969 467.671875 89.972656 C 464.527344 89.042969 461.199219 88.550781 457.761719 88.550781 C 438.359375 88.550781 422.625 104.292969 422.625 123.707031 C 422.625 124.929688 422.691406 126.136719 422.804688 127.3125 C 421.972656 127.230469 421.140625 127.179688 420.292969 127.179688 C 406.320312 127.179688 394.972656 138.519531 394.972656 152.515625 C 394.972656 166.511719 406.304688 177.832031 420.292969 177.832031 L 654.667969 177.832031 C 668.640625 177.832031 679.972656 166.492188 679.972656 152.515625 C 679.972656 138.535156 668.640625 127.179688 654.667969 127.179688 Z M 654.683594 127.179688 " fill-opacity="1" fill-rule="nonzero"/></g><path fill="#ffffff" d="M 658.304688 127.179688 C 658.304688 127.179688 656.070312 129.9375 654.503906 129.9375 C 652.464844 129.9375 651.488281 128.84375 649.644531 126.5625 C 647.671875 124.113281 644.984375 120.753906 639.734375 120.753906 C 634.484375 120.753906 631.792969 124.113281 629.820312 126.5625 C 627.992188 128.84375 627.015625 129.9375 624.976562 129.9375 C 622.941406 129.9375 621.960938 128.84375 620.136719 126.5625 C 618.164062 124.113281 615.472656 120.753906 610.222656 120.753906 C 604.972656 120.753906 602.28125 124.113281 600.308594 126.5625 C 598.464844 128.84375 597.503906 129.9375 595.449219 129.9375 C 593.394531 129.9375 592.433594 128.84375 590.609375 126.5625 C 588.636719 124.113281 585.945312 120.753906 580.695312 120.753906 L 580.695312 127.246094 C 582.734375 127.246094 583.710938 128.339844 585.539062 130.621094 C 587.511719 133.070312 590.199219 136.429688 595.449219 136.429688 C 600.699219 136.429688 603.390625 133.070312 605.363281 130.621094 C 607.207031 128.339844 608.167969 127.246094 610.222656 127.246094 C 612.277344 127.246094 613.238281 128.339844 615.066406 130.621094 C 617.039062 133.070312 619.726562 136.429688 624.976562 136.429688 C 630.226562 136.429688 632.917969 133.070312 634.890625 130.621094 C 636.714844 128.339844 637.695312 127.246094 639.734375 127.246094 C 641.769531 127.246094 642.75 128.339844 644.589844 130.621094 C 646.5625 133.070312 649.253906 136.429688 654.503906 136.429688 C 659.753906 136.429688 662.445312 133.070312 664.417969 130.621094 C 664.792969 130.148438 665.152344 129.21875 665.152344 129.21875 L 658.304688 127.164062 Z M 658.304688 127.179688 " fill-opacity="1" fill-rule="nonzero"/><path fill="#ffffff" d="M 649.171875 105.175781 C 649.171875 105.175781 648.667969 104.554688 648.390625 104.230469 C 646.484375 101.945312 643.839844 99.382812 639.242188 99.382812 C 633.992188 99.382812 631.304688 102.746094 629.332031 105.191406 C 627.488281 107.476562 626.527344 108.566406 624.472656 108.566406 C 622.417969 108.566406 621.457031 107.476562 619.613281 105.191406 C 617.640625 102.746094 614.949219 99.382812 609.699219 99.382812 C 604.449219 99.382812 601.761719 102.746094 599.789062 105.191406 C 597.945312 107.476562 596.984375 108.566406 594.929688 108.566406 C 592.875 108.566406 591.914062 107.476562 590.085938 105.191406 C 588.113281 102.746094 585.421875 99.382812 580.171875 99.382812 C 574.921875 99.382812 572.234375 102.746094 570.261719 105.191406 C 568.433594 107.476562 567.457031 108.566406 565.417969 108.566406 C 563.378906 108.566406 562.402344 107.476562 560.574219 105.191406 C 558.601562 102.746094 555.914062 99.382812 550.664062 99.382812 C 545.414062 99.382812 542.722656 102.746094 540.75 105.191406 C 538.90625 107.476562 537.945312 108.566406 535.890625 108.566406 C 533.835938 108.566406 532.875 107.476562 531.046875 105.191406 C 529.074219 102.746094 526.386719 99.382812 521.136719 99.382812 L 521.136719 105.875 C 523.171875 105.875 524.152344 106.96875 525.976562 109.253906 C 527.949219 111.699219 530.640625 115.058594 535.890625 115.058594 C 541.140625 115.058594 543.832031 111.699219 545.804688 109.253906 C 547.644531 106.96875 548.609375 105.875 550.664062 105.875 C 552.71875 105.875 553.679688 106.96875 555.503906 109.253906 C 557.476562 111.699219 560.167969 115.058594 565.417969 115.058594 C 570.667969 115.058594 573.359375 111.699219 575.332031 109.253906 C 577.15625 106.96875 578.136719 105.875 580.171875 105.875 C 582.210938 105.875 583.191406 106.96875 585.03125 109.253906 C 587.003906 111.699219 589.695312 115.058594 594.945312 115.058594 C 600.195312 115.058594 602.886719 111.699219 604.859375 109.253906 C 606.699219 106.96875 607.664062 105.875 609.714844 105.875 C 611.769531 105.875 612.734375 106.96875 614.574219 109.253906 C 616.546875 111.699219 619.238281 115.058594 624.488281 115.058594 C 629.738281 115.058594 632.429688 111.699219 634.402344 109.253906 C 636.242188 106.96875 637.207031 105.875 639.261719 105.875 C 641.3125 105.875 642.277344 106.96875 644.117188 109.253906 C 645.554688 111.046875 647.378906 113.296875 650.3125 114.390625 C 650.769531 114.554688 651.472656 114.847656 651.472656 114.847656 Z M 649.171875 105.175781 " fill-opacity="1" fill-rule="nonzero"/><path fill="#699eff" d="M 570.390625 163.964844 L 658.464844 185.335938 C 666.636719 185.335938 673.253906 191.957031 673.253906 200.128906 L 673.253906 269.230469 C 673.253906 277.402344 666.636719 284.023438 658.464844 284.023438 L 647.671875 284.023438 C 645.878906 288.625 638.933594 309.945312 638.933594 309.945312 C 638.933594 309.945312 624.960938 284.597656 605.136719 284.023438 L 591.75 284.023438 C 582.488281 283.976562 579.015625 277.925781 576.945312 269.230469 L 555.585938 178.761719 C 553.941406 167.894531 562.957031 162.546875 570.375 163.964844 Z M 570.390625 163.964844 " fill-opacity="1" fill-rule="nonzero"/><path fill="#ffffff" d="M 618.832031 245.871094 L 615.894531 215.9375 L 615.894531 202.085938 L 628.125 202.085938 L 628.125 215.9375 L 625.222656 245.871094 Z M 616.386719 262.265625 L 616.386719 250.960938 L 627.683594 250.960938 L 627.683594 262.265625 Z M 616.386719 262.265625 " fill-opacity="1" fill-rule="nonzero"/><path fill="#527be1" d="M 393.976562 553.035156 C 393.976562 561.042969 387.488281 567.535156 379.484375 567.535156 L 304.515625 567.535156 L 266.820312 591.191406 L 266.820312 567.535156 L 249.996094 567.535156 C 241.988281 567.535156 235.5 561.042969 235.5 553.035156 L 235.5 469.515625 C 235.5 461.503906 241.988281 455.011719 249.996094 455.011719 L 379.46875 455.011719 C 387.472656 455.011719 393.960938 461.503906 393.960938 469.515625 L 393.960938 553.035156 Z M 393.976562 553.035156 " fill-opacity="1" fill-rule="nonzero"/><path fill="#ffffff" d="M 303.996094 543.28125 L 277.386719 498.207031 C 276.246094 496.265625 276.878906 493.753906 278.820312 492.613281 C 280.761719 491.472656 283.273438 492.105469 284.414062 494.046875 L 304.84375 528.679688 L 346.824219 473.675781 C 348.195312 471.878906 350.753906 471.539062 352.550781 472.90625 C 354.34375 474.277344 354.683594 476.839844 353.316406 478.632812 L 303.976562 543.28125 Z M 303.996094 543.28125 " fill-opacity="1" fill-rule="nonzero"/><path fill="#527be1" d="M 364.726562 362.292969 C 364.726562 362.292969 363.832031 349.730469 367.207031 339.210938 C 368.640625 334.722656 374.183594 326.78125 374.183594 326.78125 C 374.183594 326.78125 371.003906 324.691406 369.488281 323.597656 C 338.753906 301.5625 326.003906 266.539062 326.003906 236.570312 C 326.003906 177.75 374.753906 129.886719 434.691406 129.886719 C 494.625 129.886719 543.375 177.75 543.375 236.570312 C 543.375 295.394531 494.625 343.238281 434.691406 343.238281 C 430.90625 343.238281 423.082031 343.859375 409.890625 343.09375 C 379.664062 341.316406 364.746094 362.292969 364.746094 362.292969 Z M 364.726562 362.292969 " fill-opacity="1" fill-rule="nonzero"/><path fill="#d1e1fa" d="M 451.890625 193.800781 L 464.183594 193.800781 L 464.183594 294.726562 L 451.890625 294.726562 Z M 451.890625 193.800781 " fill-opacity="1" fill-rule="nonzero"/><path fill="#d1e1fa" d="M 431.136719 218.53125 L 443.460938 218.53125 L 443.460938 294.726562 L 431.136719 294.726562 Z M 431.136719 218.53125 " fill-opacity="1" fill-rule="nonzero"/><path fill="#d1e1fa" d="M 410.398438 252.640625 L 422.65625 252.640625 L 422.65625 294.742188 L 410.398438 294.742188 Z M 410.398438 252.640625 " fill-opacity="1" fill-rule="nonzero"/><path fill="#d1e1fa" d="M 389.625 266.683594 L 401.917969 266.683594 L 401.917969 294.726562 L 389.625 294.726562 Z M 389.625 266.683594 " fill-opacity="1" fill-rule="nonzero"/><path fill="#d1e1fa" d="M 368.851562 276.699219 L 381.179688 276.699219 L 381.179688 294.742188 L 368.851562 294.742188 Z M 368.851562 276.699219 " fill-opacity="1" fill-rule="nonzero"/><path fill="#fc8948" d="M 467.28125 186.445312 L 479.542969 186.445312 L 479.542969 294.726562 L 467.28125 294.726562 Z M 467.28125 186.445312 " fill-opacity="1" fill-rule="nonzero"/><path fill="#fc8948" d="M 446.476562 212.984375 L 458.835938 212.984375 L 458.835938 294.726562 L 446.476562 294.726562 Z M 446.476562 212.984375 " fill-opacity="1" fill-rule="nonzero"/><path fill="#fc8948" d="M 425.753906 249.574219 L 438.046875 249.574219 L 438.046875 294.726562 L 425.753906 294.726562 Z M 425.753906 249.574219 " fill-opacity="1" fill-rule="nonzero"/><path fill="#fc8948" d="M 405.015625 264.613281 L 417.308594 264.613281 L 417.308594 294.726562 L 405.015625 294.726562 Z M 405.015625 264.613281 " fill-opacity="1" fill-rule="nonzero"/><path fill="#fc8948" d="M 384.246094 275.363281 L 396.539062 275.363281 L 396.539062 294.742188 L 384.246094 294.742188 Z M 384.246094 275.363281 " fill-opacity="1" fill-rule="nonzero"/><path fill="#d1e1fa" d="M 495.78125 299.195312 L 488.039062 295.882812 L 488.039062 298.738281 L 471.292969 298.738281 L 471.292969 297.15625 L 470.347656 297.15625 L 470.347656 298.738281 L 465.683594 298.738281 L 465.683594 297.15625 L 464.722656 297.15625 L 464.722656 298.738281 L 460.027344 298.738281 L 460.027344 297.15625 L 459.066406 297.15625 L 459.066406 298.738281 L 454.417969 298.738281 L 454.417969 297.15625 L 453.421875 297.15625 L 453.421875 298.738281 L 448.710938 298.738281 L 448.710938 297.15625 L 447.78125 297.15625 L 447.78125 298.738281 L 443.101562 298.738281 L 443.101562 297.15625 L 442.171875 297.15625 L 442.171875 298.738281 L 437.429688 298.738281 L 437.429688 297.15625 L 436.484375 297.15625 L 436.484375 298.738281 L 431.820312 298.738281 L 431.820312 297.15625 L 430.875 297.15625 L 430.875 298.738281 L 426.164062 298.738281 L 426.164062 297.15625 L 425.199219 297.15625 L 425.199219 298.738281 L 420.554688 298.738281 L 420.554688 297.15625 L 419.59375 297.15625 L 419.59375 298.738281 L 414.878906 298.738281 L 414.878906 297.15625 L 413.933594 297.15625 L 413.933594 298.738281 L 409.238281 298.738281 L 409.238281 297.15625 L 408.324219 297.15625 L 408.324219 298.738281 L 403.613281 298.738281 L 403.613281 297.15625 L 402.621094 297.15625 L 402.621094 298.738281 L 397.972656 298.738281 L 397.972656 297.15625 L 397.011719 297.15625 L 397.011719 298.738281 L 392.332031 298.738281 L 392.332031 297.15625 L 391.371094 297.15625 L 391.371094 298.738281 L 386.691406 298.738281 L 386.691406 297.15625 L 385.746094 297.15625 L 385.746094 298.738281 L 381.03125 298.738281 L 381.03125 297.15625 L 380.101562 297.15625 L 380.101562 298.738281 L 375.425781 298.738281 L 375.425781 297.15625 L 374.429688 297.15625 L 374.429688 298.738281 L 369.75 298.738281 L 369.75 297.15625 L 368.789062 297.15625 L 368.789062 298.738281 L 363.261719 298.738281 L 363.261719 295.019531 L 364.90625 295.019531 L 364.90625 294.089844 L 363.261719 294.089844 L 363.261719 289.375 L 364.90625 289.375 L 364.90625 288.445312 L 363.261719 288.445312 L 363.261719 283.765625 L 364.90625 283.765625 L 364.90625 282.816406 L 363.261719 282.816406 L 363.261719 278.105469 L 364.90625 278.105469 L 364.90625 277.140625 L 363.261719 277.140625 L 363.261719 272.425781 L 364.90625 272.425781 L 364.90625 271.53125 L 363.261719 271.53125 L 363.261719 266.847656 L 364.90625 266.847656 L 364.90625 265.851562 L 363.261719 265.851562 L 363.261719 261.171875 L 364.90625 261.171875 L 364.90625 260.226562 L 363.261719 260.226562 L 363.261719 255.527344 L 364.90625 255.527344 L 364.90625 254.613281 L 363.261719 254.613281 L 363.261719 249.867188 L 364.90625 249.867188 L 364.90625 248.9375 L 363.261719 248.9375 L 363.261719 244.253906 L 364.90625 244.253906 L 364.90625 243.292969 L 363.261719 243.292969 L 363.261719 238.578125 L 364.90625 238.578125 L 364.90625 237.632812 L 363.261719 237.632812 L 363.261719 232.933594 L 364.90625 232.933594 L 364.90625 232.019531 L 363.261719 232.019531 L 363.261719 227.339844 L 364.90625 227.339844 L 364.90625 226.375 L 363.261719 226.375 L 363.261719 221.695312 L 364.90625 221.695312 L 364.90625 220.699219 L 363.261719 220.699219 L 363.261719 216.019531 L 364.90625 216.019531 L 364.90625 215.054688 L 363.261719 215.054688 L 363.261719 210.339844 L 364.90625 210.339844 L 364.90625 209.460938 L 363.261719 209.460938 L 363.261719 204.730469 L 364.90625 204.730469 L 364.90625 203.785156 L 363.261719 203.785156 L 363.261719 199.101562 L 364.90625 199.101562 L 364.90625 198.105469 L 363.261719 198.105469 L 363.261719 193.457031 L 364.90625 193.457031 L 364.90625 192.527344 L 363.261719 192.527344 L 363.261719 178.628906 L 366.113281 178.628906 L 362.773438 170.867188 L 359.429688 178.628906 L 362.332031 178.628906 L 362.332031 192.527344 L 362.234375 192.527344 L 362.234375 193.457031 L 362.332031 193.457031 L 362.332031 198.105469 L 362.234375 198.105469 L 362.234375 199.101562 L 362.332031 199.101562 L 362.332031 203.785156 L 362.234375 203.785156 L 362.234375 204.730469 L 362.332031 204.730469 L 362.332031 209.460938 L 362.234375 209.460938 L 362.234375 210.339844 L 362.332031 210.339844 L 362.332031 215.054688 L 362.234375 215.054688 L 362.234375 216.019531 L 362.332031 216.019531 L 362.332031 220.699219 L 362.234375 220.699219 L 362.234375 221.695312 L 362.332031 221.695312 L 362.332031 226.375 L 362.234375 226.375 L 362.234375 227.339844 L 362.332031 227.339844 L 362.332031 232.019531 L 362.234375 232.019531 L 362.234375 232.933594 L 362.332031 232.933594 L 362.332031 237.632812 L 362.234375 237.632812 L 362.234375 238.578125 L 362.332031 238.578125 L 362.332031 243.292969 L 362.234375 243.292969 L 362.234375 244.253906 L 362.332031 244.253906 L 362.332031 248.9375 L 362.234375 248.9375 L 362.234375 249.867188 L 362.332031 249.867188 L 362.332031 254.613281 L 362.234375 254.613281 L 362.234375 255.527344 L 362.332031 255.527344 L 362.332031 260.226562 L 362.234375 260.226562 L 362.234375 261.171875 L 362.332031 261.171875 L 362.332031 265.851562 L 362.234375 265.851562 L 362.234375 266.847656 L 362.332031 266.847656 L 362.332031 271.53125 L 362.234375 271.53125 L 362.234375 272.425781 L 362.332031 272.425781 L 362.332031 277.140625 L 362.234375 277.140625 L 362.234375 278.105469 L 362.332031 278.105469 L 362.332031 282.816406 L 362.234375 282.816406 L 362.234375 283.765625 L 362.332031 283.765625 L 362.332031 288.445312 L 362.234375 288.445312 L 362.234375 289.375 L 362.332031 289.375 L 362.332031 294.089844 L 362.234375 294.089844 L 362.234375 295.019531 L 362.332031 295.019531 L 362.332031 299.765625 L 363.261719 299.765625 L 363.261719 299.703125 L 488.039062 299.703125 L 488.039062 302.605469 Z M 495.78125 299.195312 " fill-opacity="1" fill-rule="nonzero"/><path fill="#fc8948" d="M 377.199219 259.574219 C 378.832031 257.910156 410.917969 231.710938 410.917969 231.710938 L 425.640625 199.152344 L 455.707031 182.707031 L 450.359375 176.949219 L 419.886719 192.234375 L 403.449219 225.5625 L 374.574219 257.140625 Z M 377.199219 259.574219 " fill-opacity="1" fill-rule="nonzero"/><path fill="#fc8948" d="M 446.332031 172.5625 L 456.195312 187.75 L 472.679688 169.953125 L 472.335938 166.410156 L 445.972656 169.023438 Z M 446.332031 172.5625 " fill-opacity="1" fill-rule="nonzero"/><path fill="#fc8948" d="M 374.574219 257.140625 C 376.207031 255.476562 410.574219 228.15625 410.574219 228.15625 L 425.296875 195.59375 L 455.363281 179.152344 L 450.015625 173.394531 L 419.542969 188.679688 L 403.109375 222.003906 L 372.652344 246.554688 L 374.59375 257.125 Z M 374.574219 257.140625 " fill-opacity="1" fill-rule="nonzero"/><path fill="#fc8948" d="M 445.972656 169.023438 L 455.851562 184.191406 L 472.335938 166.410156 Z M 445.972656 169.023438 " fill-opacity="1" fill-rule="nonzero"/><path fill="#91aef8" d="M 468.71875 424.917969 L 348.863281 424.917969 L 348.863281 420.460938 L 468.71875 420.460938 C 482.21875 420.460938 487.761719 402.617188 488.738281 399.027344 C 491.085938 390.414062 495.554688 363.859375 496.664062 354.984375 C 500.167969 326.878906 509.867188 265.039062 509.96875 264.417969 L 514.351562 265.101562 C 514.253906 265.722656 504.570312 327.496094 501.066406 355.523438 C 499.941406 364.511719 495.421875 391.410156 493.027344 400.1875 C 489.765625 412.128906 481.679688 424.898438 468.71875 424.898438 Z M 468.71875 424.917969 " fill-opacity="1" fill-rule="nonzero"/><path fill="#91aef8" d="M 509.039062 323.453125 L 502.808594 365.015625 L 497.984375 368.898438 L 506.136719 312.652344 Z M 509.039062 323.453125 " fill-opacity="1" fill-rule="nonzero"/><path fill="#1c4591" d="M 487.984375 395.023438 L 507.5 266.375 L 509.691406 266.707031 L 490.175781 395.359375 Z M 487.984375 395.023438 " fill-opacity="1" fill-rule="nonzero"/><path fill="#ffa97b" d="M 359.65625 378.507812 C 359.65625 378.507812 374.003906 370.285156 379.890625 369.175781 C 387.457031 367.757812 388.746094 367.804688 397.582031 367.691406 C 406.417969 367.578125 420.78125 364.542969 422.347656 367.902344 C 423.914062 371.265625 406.417969 376.09375 406.417969 376.09375 C 406.417969 376.09375 404.917969 383.417969 403.566406 386.84375 C 400.664062 394.214844 392.378906 395.472656 392.378906 395.472656 C 392.378906 395.472656 390.164062 395.503906 384.097656 395.601562 C 378.03125 395.699219 362.316406 404.394531 362.316406 404.394531 L 359.640625 378.507812 Z M 359.65625 378.507812 " fill-opacity="1" fill-rule="nonzero"/><path fill="#16387f" d="M 241.597656 329.832031 C 251.21875 329.195312 267.03125 345.980469 276.066406 368.964844 C 283.402344 387.59375 288.816406 387.429688 293.363281 390.691406 C 295.792969 392.4375 372.800781 368.296875 372.800781 368.296875 L 370.550781 403.496094 C 370.550781 403.496094 289.402344 453.203125 267.261719 425.015625 C 253.304688 407.234375 231.164062 396.53125 226.433594 382.699219 C 222.457031 371.085938 218.691406 365.132812 221.902344 349.472656 C 223.792969 340.207031 231.980469 330.46875 241.597656 329.832031 Z M 241.597656 329.832031 " fill-opacity="1" fill-rule="nonzero"/><path fill="#f28d69" d="M 252.425781 267.335938 L 287.480469 275.117188 L 280.695312 326.257812 L 238.84375 315.148438 Z M 252.425781 267.335938 " fill-opacity="1" fill-rule="nonzero"/><path fill="#ffa97b" d="M 304.453125 252.882812 C 304.453125 255.101562 312.929688 264.5625 310.109375 267.335938 C 309.082031 268.347656 308.039062 269.277344 307.371094 270.582031 C 303.570312 277.875 306.488281 290.859375 298.808594 291.804688 C 289.761719 292.914062 255.261719 280.125 249.605469 270.125 C 243.945312 260.128906 249.605469 242.332031 262.042969 234.550781 C 274.484375 226.769531 296.542969 227.324219 304.453125 230.652344 C 312.375 233.976562 304.453125 252.882812 304.453125 252.882812 Z M 304.453125 252.882812 " fill-opacity="1" fill-rule="nonzero"/><path fill="#1c4591" d="M 248.460938 279.015625 C 248.460938 275.6875 239.984375 252.882812 238.84375 248.449219 C 237.71875 243.996094 236.722656 238.921875 238.273438 232.332031 C 239.96875 225.105469 245.953125 217.4375 251.835938 214.535156 C 274.453125 203.410156 290.300781 213.425781 299.347656 217.863281 C 306.128906 221.1875 302.121094 221.875 312.914062 224.535156 C 321.960938 226.75 307.53125 243.652344 307.109375 244.371094 C 306.683594 245.101562 294.246094 247.320312 294.246094 247.320312 C 294.246094 247.320312 291.34375 254.890625 290.851562 257.320312 C 290.28125 260.09375 284.625 255.65625 284.625 255.65625 C 284.625 255.65625 282.523438 251.890625 280.664062 251.757812 C 279.539062 251.675781 275.003906 251.757812 272.738281 259.539062 C 270.230469 268.152344 268.777344 283.453125 268.777344 283.453125 L 248.414062 279 Z M 248.460938 279.015625 " fill-opacity="1" fill-rule="nonzero"/><path fill="#16387f" d="M 207.507812 428.863281 L 318.945312 428.863281 C 318.570312 426.5 318.246094 424.148438 317.984375 421.882812 C 313.335938 382.421875 311.023438 369.0625 305.804688 349.339844 C 302.871094 338.230469 289.273438 312.472656 287.476562 310.710938 C 285.78125 309.046875 278.414062 305.523438 268.808594 302.375 C 258.636719 299.050781 241.09375 296.257812 241.09375 296.257812 C 238.828125 299.585938 205.125 310.351562 206.59375 383.007812 C 206.871094 396.777344 207.179688 412.664062 207.488281 428.878906 Z M 207.507812 428.863281 " fill-opacity="1" fill-rule="nonzero"/><path fill="#1c4591" d="M 632.199219 422.777344 L 182.085938 425.308594 L 182.085938 431.734375 L 632.234375 431.734375 Z M 632.199219 422.777344 " fill-opacity="1" fill-rule="nonzero"/><path fill="#ffa97b" d="M 343.648438 395.636719 C 343.648438 395.636719 360.945312 394.101562 367.15625 395.554688 C 375.128906 397.414062 376.371094 398.015625 385.074219 401.605469 C 393.78125 405.210938 403.859375 415.03125 404.070312 418.78125 C 404.28125 422.519531 390.425781 413.023438 390.425781 413.023438 C 390.425781 413.023438 386.054688 419.125 383.378906 421.703125 C 377.625 427.25 369 424.933594 369 424.933594 C 369 424.933594 366.816406 424.035156 360.832031 421.570312 C 354.863281 419.109375 336.015625 420.511719 336.015625 420.511719 L 343.628906 395.617188 Z M 343.648438 395.636719 " fill-opacity="1" fill-rule="nonzero"/><path fill="#1c4591" d="M 272.347656 314.15625 C 281.609375 316.847656 290.738281 338.035156 291.390625 362.714844 C 291.929688 382.730469 292.222656 397.558594 295.371094 402.191406 C 297.050781 404.671875 363.539062 391.851562 363.539062 391.851562 L 354.863281 426.972656 C 354.863281 426.972656 268.613281 463.445312 257.429688 429.386719 C 250.371094 407.902344 239.773438 373.289062 240.050781 358.65625 C 240.277344 346.371094 238.777344 339.488281 247.125 325.882812 C 252.066406 317.824219 263.070312 311.460938 272.332031 314.15625 Z M 272.347656 314.15625 " fill-opacity="1" fill-rule="nonzero"/><path fill="#283146" d="M 296.25 403.203125 C 295.597656 403.203125 295.191406 403.171875 294.996094 403.074219 C 292.453125 401.835938 289.53125 380.660156 289.078125 347.351562 C 288.898438 333.992188 281.59375 321.25 276.390625 317.203125 L 275.773438 316.714844 L 276.734375 315.476562 L 277.355469 315.964844 C 282.800781 320.207031 290.445312 333.46875 290.640625 347.332031 C 291.148438 384.589844 294.539062 400.234375 295.710938 401.671875 C 297.652344 401.996094 318 398.71875 326.722656 397.316406 C 329.707031 396.84375 332.054688 396.449219 333.195312 396.289062 C 338.445312 395.519531 360.292969 391.328125 360.523438 391.28125 L 361.304688 391.132812 L 361.597656 392.683594 L 360.816406 392.828125 C 360.585938 392.878906 338.707031 397.070312 333.425781 397.855469 C 332.28125 398.015625 329.949219 398.390625 326.96875 398.882812 C 307.941406 401.949219 299.316406 403.1875 296.234375 403.21875 Z M 295.761719 401.703125 Z M 295.761719 401.703125 " fill-opacity="1" fill-rule="nonzero"/><path fill="#f28d69" d="M 614.558594 420.59375 C 614.558594 419.957031 644.789062 422.601562 649.207031 409.632812 C 653.378906 397.398438 647.214844 383.5 647.214844 383.5 L 684.535156 366.109375 C 684.535156 366.109375 683.460938 387.023438 683.949219 399.222656 C 684.714844 418.261719 711.601562 426.449219 711.601562 426.449219 Z M 614.558594 420.59375 " fill-opacity="1" fill-rule="nonzero"/><path fill="#ffa97b" d="M 634.269531 337.449219 C 631.808594 345.441406 634.597656 352 632.101562 358.671875 C 629.609375 365.34375 639.636719 399.535156 647.574219 399.371094 C 667.417969 398.929688 672.554688 392.191406 676.402344 386.808594 C 680.25 381.425781 683.707031 358.851562 684.910156 353.515625 C 686.117188 348.183594 680.347656 320.726562 660.390625 322.292969 C 636.617188 324.152344 634.269531 337.449219 634.269531 337.449219 Z M 634.269531 337.449219 " fill-opacity="1" fill-rule="nonzero"/><path fill="#1c4591" d="M 678.78125 404.625 L 700.433594 396.859375 C 700.433594 396.859375 725.625 321.152344 671.347656 309.472656 C 665.6875 308.25 660.046875 307.074219 655.449219 308.511719 C 650.851562 309.929688 637.875 315.523438 633.179688 318.28125 C 621.421875 325.164062 627.128906 343.566406 629.984375 352.765625 C 631.171875 356.617188 628.464844 403.105469 628.464844 403.105469 L 644.214844 397.460938 C 644.214844 397.460938 638.054688 385.226562 634.449219 375.179688 C 631.628906 367.300781 631.515625 362 632.707031 356.679688 C 634.484375 348.835938 634.304688 339.4375 634.90625 336.78125 C 635.511719 334.121094 638.003906 331.234375 640.710938 330.027344 C 653.152344 324.449219 661.335938 334.855469 666.734375 340.027344 C 672.144531 345.195312 684.847656 350.875 685.042969 351.542969 C 685.253906 352.210938 682.582031 365.472656 682.582031 365.472656 L 678.765625 404.605469 Z M 678.78125 404.625 " fill-opacity="1" fill-rule="nonzero"/><path fill="#afd7ff" d="M 573.179688 543.882812 L 620.476562 464.980469 L 623.347656 415.929688 C 618.082031 417.363281 610.941406 422.617188 608.414062 427.964844 C 605.886719 433.316406 598.222656 451.148438 585.242188 465.992188 C 567.292969 486.527344 546.242188 545.121094 546.242188 545.121094 L 573.195312 543.898438 Z M 573.179688 543.882812 " fill-opacity="1" fill-rule="nonzero"/><path fill="#97cbff" d="M 720.082031 546.882812 C 720.082031 546.882812 707.949219 469.023438 709.582031 463.511719 C 713.117188 451.523438 716.933594 424.296875 716.933594 424.296875 L 697.824219 419.433594 C 697.824219 419.433594 680.035156 420.59375 661.320312 419.433594 C 643.808594 418.34375 623.234375 415.929688 623.234375 415.929688 C 623.234375 415.929688 613.726562 441.40625 611.3125 446.757812 C 608.902344 452.109375 601.546875 462.859375 600.457031 470.835938 C 599.363281 478.796875 602.574219 481.960938 607.351562 495.828125 C 612.863281 511.84375 614.949219 546.902344 614.949219 546.902344 L 720.082031 546.902344 Z M 720.082031 546.882812 " fill-opacity="1" fill-rule="nonzero"/><path fill="#ffa97b" d="M 613.351562 520.457031 C 612.113281 524.453125 606.046875 548.417969 606.046875 548.417969 L 632.414062 543.851562 L 637.207031 521.242188 L 613.367188 520.457031 Z M 613.351562 520.457031 " fill-opacity="1" fill-rule="nonzero"/><path fill="#afd7ff" d="M 715.613281 424.3125 C 726.160156 422.746094 733.660156 462.304688 734.019531 478.175781 C 734.707031 508.617188 729.945312 534.714844 728.917969 538.320312 C 722.785156 559.640625 623.25 542.023438 623.25 542.023438 L 634.367188 518.84375 C 634.367188 518.84375 678.863281 519.773438 695.542969 516.054688 C 703.890625 514.195312 704.378906 520.199219 700.171875 478.03125 C 698.460938 460.851562 698.3125 461.34375 699.714844 453.121094 C 701.902344 440.300781 715.613281 424.296875 715.613281 424.296875 Z M 715.613281 424.3125 " fill-opacity="1" fill-rule="nonzero"/><path fill="#69a5ed" d="M 658.808594 520.457031 C 646.628906 520.457031 637.304688 519.789062 637.125 519.773438 L 637.253906 518.011719 C 637.644531 518.042969 677.152344 520.867188 699.796875 514.765625 C 702.667969 514 701.640625 503.132812 700.5625 491.632812 C 699.636719 481.667969 698.476562 469.269531 699.144531 457.917969 C 700.074219 442.027344 709.417969 428.617188 712.808594 426.203125 L 713.835938 427.65625 C 710.363281 430.136719 701.769531 443.445312 700.90625 458.03125 C 700.253906 469.238281 701.347656 481.0625 702.324219 491.472656 C 703.660156 505.828125 704.558594 515.320312 700.253906 516.476562 C 688.367188 519.675781 671.933594 520.457031 658.808594 520.457031 Z M 658.808594 520.457031 " fill-opacity="1" fill-rule="nonzero"/><path fill="#ffa97b" d="M 682.386719 358.3125 C 687.929688 352.847656 687.894531 351.65625 691.464844 351.574219 C 695.019531 351.492188 696.261719 357.90625 694.109375 363.402344 C 692.589844 367.300781 689.933594 371.28125 683.574219 370.773438 C 676.464844 370.203125 682.386719 358.3125 682.386719 358.3125 Z M 682.386719 358.3125 " fill-opacity="1" fill-rule="nonzero"/><path fill="#699eff" d="M 616.464844 548.335938 L 514.140625 549.183594 C 511.46875 549.199219 507.78125 547 505.941406 544.292969 L 457.027344 472.238281 C 455.183594 469.53125 455.871094 467.296875 458.542969 467.261719 L 560.867188 466.414062 C 563.542969 466.398438 567.226562 468.601562 569.070312 471.308594 L 617.984375 543.359375 C 619.824219 546.070312 619.140625 548.304688 616.464844 548.335938 Z M 616.464844 548.335938 " fill-opacity="1" fill-rule="nonzero"/><path fill="#ffffff" d="M 550.484375 502.695312 C 552.03125 504.976562 551.460938 506.855469 549.210938 506.871094 C 546.945312 506.886719 543.863281 505.042969 542.296875 502.757812 C 540.75 500.476562 541.320312 498.601562 543.570312 498.582031 C 545.835938 498.566406 548.917969 500.410156 550.484375 502.695312 Z M 550.484375 502.695312 " fill-opacity="1" fill-rule="nonzero"/><path fill="#1c4591" d="M 750 541.222656 L 488.445312 541.222656 L 490.808594 550.816406 L 749.984375 550.816406 Z M 750 541.222656 " fill-opacity="1" fill-rule="nonzero"/><path fill="#f28d69" d="M 494.917969 540.195312 L 477.976562 463.085938 C 476.039062 454.246094 467.527344 448.535156 459.066406 450.394531 L 457.371094 450.773438 C 448.90625 452.632812 432.472656 464.328125 434.414062 473.167969 L 453.894531 543.492188 C 455.835938 552.332031 496.875 549.023438 494.933594 540.179688 Z M 494.917969 540.195312 " fill-opacity="1" fill-rule="nonzero"/><path fill="#ffa97b" d="M 424.664062 423.789062 C 423.277344 423.789062 414.472656 437.542969 414.929688 443.269531 C 415.5 450.378906 413.558594 474 414.929688 480.820312 C 416.316406 487.769531 419.886719 502.679688 424.664062 505.859375 C 428.835938 508.648438 444.847656 509.105469 444.847656 509.105469 C 444.847656 509.105469 459.40625 493.332031 463.582031 479.433594 C 465.015625 474.636719 478.875 426.578125 474.699219 421.015625 C 470.527344 415.453125 439.957031 407.101562 434.398438 411.277344 C 428.835938 415.453125 424.664062 423.789062 424.664062 423.789062 Z M 424.664062 423.789062 " fill-opacity="1" fill-rule="nonzero"/><path fill="#ffa97b" d="M 445.566406 465.714844 C 445.84375 462.566406 445.566406 456.546875 440.984375 453.496094 C 434.183594 448.960938 431.316406 458.273438 433.042969 465.027344 C 433.582031 467.085938 433.679688 469.269531 433.46875 471.40625 C 433.335938 472.695312 432.832031 473.917969 433.859375 475.011719 C 435.621094 476.871094 439.515625 475.320312 441.082031 473.96875 C 443.96875 471.472656 445.253906 469.203125 445.566406 465.730469 Z M 445.566406 465.714844 " fill-opacity="1" fill-rule="nonzero"/><path fill="#91aef8" d="M 339.816406 663.210938 L 277.273438 663.210938 L 277.273438 656.261719 L 339.816406 656.261719 Z M 339.816406 663.210938 " fill-opacity="1" fill-rule="nonzero"/><path fill="#1342f6" d="M 162.082031 530.132812 L 170.21875 584.402344 L 176.511719 589.476562 L 165.863281 516.039062 Z M 162.082031 530.132812 " fill-opacity="1" fill-rule="nonzero"/><path fill="#1c4591" d="M 162.652344 456.023438 L 197.640625 476.347656 L 213.816406 615.511719 L 188.609375 624.304688 Z M 162.652344 456.023438 " fill-opacity="1" fill-rule="nonzero"/><path fill="#1342f6" d="M 186.667969 625.167969 L 189.539062 624.746094 L 164.054688 455.582031 L 161.183594 456.023438 Z M 186.667969 625.167969 " fill-opacity="1" fill-rule="nonzero"/><path fill="#91aef8" d="M 214.746094 662.65625 L 311.707031 662.65625 L 311.707031 656.847656 L 214.746094 656.847656 C 197.121094 656.847656 189.863281 633.535156 188.59375 628.855469 C 185.527344 617.597656 179.707031 582.917969 178.257812 571.320312 C 173.675781 534.617188 160.988281 453.855469 160.875 453.039062 L 155.136719 453.9375 C 155.265625 454.75 167.917969 535.433594 172.5 572.039062 C 173.96875 583.765625 179.871094 618.90625 183 630.386719 C 187.257812 645.984375 197.820312 662.65625 214.761719 662.65625 Z M 214.746094 662.65625 " fill-opacity="1" fill-rule="nonzero"/><path fill="#1d60dc" d="M 508.859375 672.019531 C 513.585938 652.410156 526.808594 625.527344 529.5 610.75 C 534.015625 585.902344 534.082031 573.34375 529.5 561.125 C 520.84375 538.027344 504.585938 522.757812 491.101562 522.824219 C 465.390625 522.9375 428.773438 541.273438 428.773438 541.273438 C 428.773438 541.273438 408.621094 636.847656 406.15625 672.019531 L 508.875 672.019531 Z M 508.859375 672.019531 " fill-opacity="1" fill-rule="nonzero"/><path fill="#1c4591" d="M 695.167969 663.175781 L 154.566406 663.175781 L 154.566406 671.921875 L 695.167969 671.5625 Z M 695.167969 663.175781 " fill-opacity="1" fill-rule="nonzero"/><path fill="#ffa97b" d="M 408.847656 680.371094 C 405.796875 683.421875 378.324219 681.902344 367.628906 678.835938 C 356.933594 675.769531 311.152344 658.984375 311.152344 658.984375 L 317.25 636.082031 L 387.261719 652.523438 L 409.84375 574.601562 L 439.84375 603.878906 C 439.84375 603.878906 416.625 672.574219 408.847656 680.371094 Z M 408.847656 680.371094 " fill-opacity="1" fill-rule="nonzero"/><path fill="#ffa97b" d="M 325.972656 644.777344 L 321.390625 663.09375 C 322.273438 663.078125 315.292969 669.113281 307.648438 666.144531 C 303.621094 664.578125 298.484375 660.042969 296.96875 655.460938 C 296.28125 653.40625 296.476562 641.644531 296.96875 640.191406 C 298.5 635.609375 304.597656 634.089844 307.648438 632.558594 C 310.695312 631.023438 312.226562 620.339844 315.277344 623.390625 C 320.675781 628.789062 325.957031 644.777344 325.957031 644.777344 Z M 325.972656 644.777344 " fill-opacity="1" fill-rule="nonzero"/><path fill="#4083ff" d="M 427.648438 541.273438 C 424.597656 542.804688 415.433594 544.324219 409.335938 561.125 C 407.003906 567.535156 392.933594 614.140625 392.933594 614.140625 C 392.933594 614.140625 400.15625 615.121094 416.640625 618.660156 C 432.441406 622.050781 445.972656 623.75 445.972656 623.75 C 445.972656 623.75 449.625 584.207031 449.019531 577.945312 C 445.972656 545.875 430.710938 539.773438 427.648438 541.289062 Z M 427.648438 541.273438 " fill-opacity="1" fill-rule="nonzero"/><path fill="#1444bf" d="M 447.324219 623.894531 L 444.585938 623.570312 C 444.621094 623.324219 447.636719 598.285156 447.636719 591.664062 C 447.636719 574.894531 447.636719 573.523438 443.820312 559.738281 C 441.796875 552.429688 432.765625 543.835938 430.09375 542.496094 L 431.332031 540.035156 C 434.738281 541.746094 444.246094 550.914062 446.496094 558.988281 C 450.40625 573.132812 450.40625 574.894531 450.40625 591.644531 C 450.40625 598.433594 447.472656 622.851562 447.34375 623.878906 Z M 447.324219 623.894531 " fill-opacity="1" fill-rule="nonzero"/><path fill="#1c4591" d="M 515.769531 474.082031 C 516.992188 455.941406 507.570312 439.304688 504.699219 435.03125 C 503.96875 432.027344 500.363281 428.960938 498.503906 426.757812 C 494.917969 422.5 495.652344 415.375 478.710938 404.085938 C 466.941406 396.238281 453.878906 395.046875 441.457031 397.316406 C 423.996094 400.496094 417.75 413.121094 408.71875 427.804688 C 404.039062 435.40625 410.96875 441.359375 413.234375 442.484375 C 420.359375 446.058594 426.78125 442.484375 445.628906 470.492188 C 446.121094 471.210938 446.625 471.894531 447.144531 472.566406 C 447.144531 472.566406 449.199219 507.097656 450.375 514.601562 C 454.566406 541.078125 460.109375 564.859375 465.164062 568.972656 C 483.226562 583.652344 524.265625 579.019531 537.40625 561.058594 C 545.753906 549.65625 512.804688 517.898438 515.769531 474.082031 Z M 515.769531 474.082031 " fill-opacity="1" fill-rule="nonzero"/><path fill="#ffffff" d="M 88.792969 671.464844 C 88.792969 677.304688 84.066406 682.035156 78.230469 682.035156 C 72.390625 682.035156 67.664062 677.285156 67.664062 671.464844 C 67.664062 665.640625 72.390625 660.894531 78.230469 660.894531 C 84.066406 660.894531 88.792969 665.625 88.792969 671.464844 Z M 88.792969 671.464844 " fill-opacity="1" fill-rule="nonzero"/><path fill="#ffffff" d="M 100.828125 657.941406 C 99.035156 657.941406 97.304688 657.027344 96.3125 655.378906 C 92.527344 649.035156 85.597656 645.101562 78.230469 645.101562 C 70.859375 645.101562 63.980469 648.953125 60.148438 655.378906 C 58.664062 657.859375 55.4375 658.675781 52.957031 657.191406 C 50.480469 655.707031 49.664062 652.476562 51.148438 649.996094 C 56.820312 640.503906 67.207031 634.613281 78.246094 634.613281 C 89.285156 634.613281 99.667969 640.519531 105.34375 650.011719 C 106.828125 652.507812 106.027344 655.722656 103.535156 657.207031 C 102.703125 657.710938 101.757812 657.957031 100.84375 657.957031 Z M 100.828125 657.941406 " fill-opacity="1" fill-rule="nonzero"/><path fill="#ffffff" d="M 115.011719 643.585938 C 113.265625 643.585938 111.539062 642.769531 110.414062 641.253906 C 102.929688 630.992188 90.898438 624.875 78.210938 624.875 C 65.527344 624.875 53.542969 630.976562 46.042969 641.1875 C 44.203125 643.714844 40.648438 644.253906 38.121094 642.410156 C 35.59375 640.550781 35.054688 637.011719 36.898438 634.484375 C 41.5625 628.121094 47.707031 622.851562 54.6875 619.246094 C 61.890625 615.511719 70.042969 613.539062 78.210938 613.539062 C 86.398438 613.539062 94.550781 615.527344 101.789062 619.28125 C 108.765625 622.917969 114.929688 628.203125 119.59375 634.582031 C 121.4375 637.109375 120.882812 640.664062 118.355469 642.507812 C 117.34375 643.242188 116.167969 643.601562 115.011719 643.601562 Z M 115.011719 643.585938 " fill-opacity="1" fill-rule="nonzero"/><path fill="#ffffff" d="M 27.214844 628.804688 C 25.957031 628.804688 24.6875 628.398438 23.625 627.550781 C 21.164062 625.558594 20.773438 621.953125 22.746094 619.492188 C 36.328125 602.558594 56.542969 592.851562 78.230469 592.851562 C 99.914062 592.851562 120.015625 602.511719 133.613281 619.359375 C 135.605469 621.824219 135.210938 625.445312 132.75 627.4375 C 130.289062 629.425781 126.667969 629.035156 124.679688 626.570312 C 113.285156 612.429688 96.34375 604.320312 78.230469 604.320312 C 60.113281 604.320312 43.078125 612.460938 31.695312 626.667969 C 30.570312 628.089844 28.910156 628.804688 27.230469 628.804688 Z M 27.214844 628.804688 " fill-opacity="1" fill-rule="nonzero"/><g clip-path="url(#f1c7bb8e3d)"><path stroke-linecap="butt" transform="matrix(1.63043, 0, 0, 1.63125, 0.00117452, 48.913062)" fill="none" stroke-linejoin="miter" d="M -431.999593 -4919.999626 L 591.999599 -4919.999626 L 591.999599 2402.000252 L -431.999593 2402.000252 Z M -431.999593 -4919.999626 " stroke="#606060" stroke-width="0.75" stroke-opacity="1" stroke-miterlimit="10"/></g></svg>